<svg width="700" height="701" viewBox="0 0 700 701" fill="none" xmlns="http://www.w3.org/2000/svg">
<path d="M350 700.264C543.3 700.264 700 609.795 700 498.196C700 386.596 543.3 296.127 350 296.127C156.7 296.127 0 386.596 0 498.196C0 609.795 156.7 700.264 350 700.264Z" fill="#F5F5F5"/>
<path d="M409.906 609.3C445.448 609.3 474.261 592.666 474.261 572.146C474.261 551.627 445.448 534.992 409.906 534.992C374.364 534.992 345.552 551.627 345.552 572.146C345.552 592.666 374.364 609.3 409.906 609.3Z" fill="#E0E0E0"/>
<path d="M577.325 587.294C612.867 587.294 641.68 570.66 641.68 550.14C641.68 529.62 612.867 512.986 577.325 512.986C541.783 512.986 512.971 529.62 512.971 550.14C512.971 570.66 541.783 587.294 577.325 587.294Z" fill="#E0E0E0"/>
<path d="M225.319 665.008C260.861 665.008 289.674 648.373 289.674 627.854C289.674 607.334 260.861 590.7 225.319 590.7C189.777 590.7 160.965 607.334 160.965 627.854C160.965 648.373 189.777 665.008 225.319 665.008Z" fill="#E0E0E0"/>
<path d="M119.845 505.676C119.845 505.676 118.165 466.392 101.695 444.525C85.2256 422.659 65.039 419.518 55.039 425.676C47.7295 430.155 48.7093 443.468 61.3531 452.115C73.997 460.762 98.3671 482.924 102.177 497.371L119.845 505.676Z" fill="#37474F"/>
<path d="M108.958 499.953C108.692 499.933 108.443 499.81 108.266 499.609C108.089 499.409 107.997 499.147 108.01 498.88C109.705 463.235 78.4607 441.011 69.9537 437.014C69.7096 436.899 69.5205 436.693 69.4274 436.439C69.3342 436.186 69.3445 435.906 69.456 435.661C69.574 435.416 69.7832 435.226 70.039 435.133C70.2947 435.04 70.5767 435.051 70.8246 435.163C79.5494 439.3 111.789 462.208 110.047 498.927C110.031 499.196 109.909 499.449 109.708 499.629C109.508 499.81 109.244 499.904 108.974 499.891L108.958 499.953Z" fill="white"/>
<path d="M112.069 493.266C109.823 493.235 107.664 492.396 105.988 490.902C104.075 488.802 104.23 485.583 103.344 482.877C101.897 478.429 97.5117 475.412 92.9394 474.463C88.3034 473.74 83.5644 474.059 79.067 475.396C69.8912 477.652 61.0732 472.006 51.8819 472.675C48.5655 472.781 45.3403 473.787 42.5506 475.583C41.1747 476.493 40.0474 477.732 39.2708 479.188C38.4941 480.643 38.0927 482.269 38.1027 483.919C38.418 486.649 39.7779 489.152 41.8974 490.902C44.0228 492.647 46.3646 494.111 48.8648 495.256L56.9363 499.378C58.3317 499.997 59.6182 500.838 60.7466 501.866C61.8129 503.009 62.6173 504.37 63.1034 505.856C63.5896 507.341 63.7459 508.914 63.5615 510.466C62.9394 513.577 60.4511 515.941 59.6579 518.989C58.6782 522.986 61.1198 527.263 64.6346 529.424C68.2853 531.401 72.4526 532.215 76.5786 531.757C80.6999 531.524 84.7746 530.7 88.8959 530.622C91.6843 530.422 94.471 531.033 96.9208 532.379C99.6873 534.383 101.681 537.276 102.566 540.575C103.1 542.691 103.95 544.715 105.086 546.578C106.486 548.349 108.372 549.673 110.513 550.389C114.654 551.913 119.203 551.913 123.344 550.389C126.75 549.082 128.414 545.241 129.689 541.913C130.963 538.428 131.57 534.735 131.478 531.026C131.282 521.493 129.127 512.102 125.148 503.437C123.235 499.456 120.482 495.474 116.252 494.106C114.882 493.715 113.483 493.434 112.069 493.266Z" fill="#455A64"/>
<path d="M120.902 536.003C120.714 536.004 120.53 535.945 120.377 535.837C120.223 535.728 120.108 535.574 120.046 535.396C110.451 507.885 65.0541 483.95 48.5067 481.197C48.3892 481.178 48.2768 481.136 48.1757 481.073C48.0746 481.01 47.9869 480.928 47.9176 480.831C47.8483 480.734 47.7987 480.625 47.7717 480.509C47.7447 480.393 47.7408 480.273 47.7602 480.155C47.7796 480.038 47.8219 479.925 47.8848 479.824C47.9476 479.723 48.0298 479.636 48.1266 479.566C48.2233 479.497 48.3328 479.447 48.4487 479.42C48.5646 479.393 48.6847 479.389 48.8022 479.409C65.7228 482.208 112.021 506.672 121.897 534.79C121.939 534.903 121.957 535.024 121.951 535.144C121.946 535.265 121.916 535.383 121.864 535.491C121.811 535.6 121.738 535.697 121.647 535.777C121.557 535.857 121.452 535.918 121.337 535.956C121.197 536.005 121.049 536.02 120.902 536.003Z" fill="white"/>
<path d="M80.0936 520.917C79.9199 520.903 79.7541 520.839 79.6162 520.732C79.4784 520.625 79.3743 520.481 79.3168 520.316C79.2592 520.152 79.2505 519.974 79.2918 519.805C79.333 519.636 79.4225 519.482 79.5493 519.362C86.9722 514.227 95.7503 511.408 104.775 511.26C104.996 511.288 105.198 511.397 105.345 511.564C105.492 511.732 105.573 511.947 105.573 512.169C105.573 512.392 105.492 512.607 105.345 512.775C105.198 512.942 104.996 513.05 104.775 513.079C96.1426 513.288 87.755 515.989 80.6224 520.855C80.4559 520.927 80.2722 520.948 80.0936 520.917Z" fill="white"/>
<path d="M121.4 557.278C120.422 556.613 119.614 555.728 119.041 554.693C118.469 553.659 118.147 552.504 118.103 551.322V227.232C118.171 226.013 118.524 224.828 119.135 223.772C119.745 222.715 120.596 221.818 121.618 221.151L502.893 1.01087C503.906 0.373229 505.074 0.0241576 506.271 0.00126434C507.468 -0.0216289 508.649 0.282523 509.685 0.880949C510.722 1.47938 511.576 2.34939 512.155 3.39724C512.734 4.44509 513.016 5.63106 512.971 6.82735V330.933C512.903 332.151 512.55 333.337 511.939 334.393C511.329 335.449 510.478 336.347 509.456 337.014L128.181 557.154C127.139 557.703 125.983 558 124.805 558.021C123.628 558.043 122.462 557.788 121.4 557.278Z" fill="#455A64"/>
<path d="M127.512 557.449H127.372C127.266 557.513 127.15 557.56 127.03 557.589H126.766C126.609 557.644 126.448 557.68 126.283 557.698C126.179 557.74 126.069 557.767 125.957 557.776L125.428 557.854C124.04 558.042 122.628 557.797 121.385 557.154C120.408 556.493 119.602 555.61 119.031 554.577C118.461 553.545 118.143 552.392 118.103 551.213V268.771L124.697 272.582V555.117C124.697 556.672 125.49 557.636 126.641 557.636C126.796 557.66 126.953 557.66 127.108 557.636C127.251 557.595 127.388 557.532 127.512 557.449Z" fill="#0A6A56"/>
<path opacity="0.81" d="M127.512 557.449H127.372C127.266 557.513 127.15 557.56 127.03 557.589H126.766C126.609 557.644 126.448 557.68 126.283 557.698C126.179 557.74 126.069 557.767 125.957 557.776L125.428 557.854C124.04 558.042 122.628 557.797 121.385 557.154C120.408 556.493 119.602 555.61 119.031 554.577C118.461 553.545 118.143 552.392 118.103 551.213V268.771L124.697 272.582V555.117C124.697 556.672 125.49 557.636 126.641 557.636C126.796 557.66 126.953 557.66 127.108 557.636C127.251 557.595 127.388 557.532 127.512 557.449Z" fill="#E0E0E0"/>
<path d="M124.681 272.582L118.087 268.771V331.524L124.681 335.365V272.582Z" fill="#0A6A56"/>
<path opacity="0.15" d="M124.681 272.582L118.087 268.771V331.524L124.681 335.365V272.582Z" fill="black"/>
<path d="M125.692 227.574C125.07 228.621 124.722 229.809 124.681 231.026V272.582L118.087 268.771V227.232C118.08 227.092 118.08 226.952 118.087 226.812C118.117 226.519 118.164 226.228 118.227 225.941C118.421 225.18 118.714 224.448 119.098 223.764L125.692 227.574Z" fill="#263238"/>
<path d="M512.971 6.84289V25.5987L233.484 186.952C231.556 188.071 229.985 187.154 229.985 184.93V177.823C229.985 175.599 228.43 174.712 226.47 175.801L141.353 224.961C140.332 225.628 139.481 226.526 138.87 227.582C138.26 228.638 137.906 229.824 137.839 231.042V238.134C137.773 239.351 137.422 240.535 136.814 241.591C136.206 242.647 135.358 243.546 134.339 244.215L124.682 249.844V231.182C124.748 229.965 125.099 228.781 125.706 227.724C126.314 226.668 127.162 225.77 128.181 225.101L509.472 4.82112C511.4 3.70137 512.971 4.60339 512.971 6.84289Z" fill="#37474F"/>
<path d="M512.986 330.949C512.916 332.164 512.562 333.346 511.951 334.4C511.341 335.453 510.491 336.349 509.472 337.014L128.181 557.154C126.252 558.258 124.682 557.356 124.682 555.117V249.844L134.339 244.277C136.268 243.157 139.409 226.143 141.353 225.023L225.039 176.703C226.983 175.583 231.556 188.149 233.484 187.03L512.971 25.5988V330.949H512.986Z" fill="#0A6A56"/>
<path opacity="0.9" d="M512.986 330.949C512.916 332.164 512.562 333.346 511.951 334.4C511.341 335.453 510.491 336.349 509.472 337.014L128.181 557.154C126.252 558.258 124.682 557.356 124.682 555.117V249.844L134.339 244.277C136.268 243.157 139.409 226.143 141.353 225.023L225.039 176.703C226.983 175.583 231.556 188.149 233.484 187.03L512.971 25.5988V330.949H512.986Z" fill="white"/>
<g opacity="0.4">
<path d="M511.416 28.2893V330.949C511.34 331.882 511.055 332.787 510.581 333.595C510.107 334.402 509.457 335.093 508.678 335.614L127.403 555.801C127.168 555.96 126.894 556.051 126.61 556.065C126.252 556.065 126.237 555.288 126.237 555.117V250.669L135.117 245.537C136.486 244.743 137.357 242.022 139.316 235.023C140.028 232.008 141.006 229.062 142.24 226.221L225.242 178.305C226.235 179.659 227.129 181.083 227.916 182.566C230.172 186.516 231.416 188.569 233.22 188.569C233.584 188.568 233.941 188.477 234.262 188.305L511.416 28.2893ZM512.971 25.5988L233.484 186.952C233.397 186.974 233.307 186.974 233.22 186.952C231.26 186.952 227.279 176.485 225.304 176.485C225.217 176.463 225.126 176.463 225.039 176.485L141.353 224.961C139.409 226.081 136.268 243.095 134.339 244.215L124.682 249.844V555.117C124.682 556.672 125.475 557.62 126.61 557.62C127.159 557.598 127.694 557.437 128.165 557.154L509.472 337.014C510.491 336.349 511.341 335.453 511.951 334.4C512.562 333.346 512.916 332.164 512.986 330.949V25.5988H512.971Z" fill="#0A6A56"/>
</g>
<path d="M124.682 272.582V335.365L512.971 111.213V48.4137L124.682 272.582Z" fill="#0A6A56"/>
<path d="M512.971 25.5988V48.4137L124.682 272.582V249.844L131.882 245.676C133.811 244.557 134.464 242.846 135.381 239.596L137.839 231.104C138.601 228.149 139.394 226.143 141.353 225.023L225.039 176.703C226.983 175.583 228.507 175.459 229.985 177.9L232.986 183.344C234.075 185.257 234.635 186.376 236.563 185.257L512.971 25.5988Z" fill="#F0F0F0"/>
<path d="M496.517 18.6004C498.958 17.2007 500.933 18.336 500.933 21.1509C500.85 22.6837 500.407 24.1753 499.64 25.5047C498.872 26.8341 497.802 27.9639 496.517 28.8025C494.09 30.2022 492.115 29.0669 492.115 26.252C492.199 24.7212 492.641 23.2314 493.405 21.9024C494.17 20.5735 495.235 19.4425 496.517 18.6004Z" fill="#0A6A56"/>
<path d="M480.653 27.7605C483.079 26.3608 485.054 27.4961 485.054 30.3111C484.971 31.8419 484.529 33.3316 483.764 34.6606C483 35.9895 481.934 37.1206 480.653 37.9627C478.211 39.3624 476.236 38.2271 476.236 35.4121C476.319 33.8794 476.763 32.3878 477.53 31.0584C478.297 29.7289 479.367 28.5991 480.653 27.7605Z" fill="#0A6A56"/>
<path d="M464.744 36.9207C467.17 35.521 469.161 36.6563 469.161 39.4712C469.074 41.0031 468.629 42.4933 467.862 43.8222C467.095 45.151 466.027 46.2815 464.744 47.1228C462.302 48.5381 460.327 47.3872 460.327 44.5723C460.41 43.0395 460.853 41.5479 461.621 40.2185C462.388 38.8891 463.458 37.7593 464.744 36.9207Z" fill="#0A6A56"/>
<path opacity="0.5" d="M140.763 251.4L135.257 254.51L137.357 250.482C137.44 250.329 137.483 250.158 137.483 249.984C137.483 249.811 137.44 249.64 137.357 249.487C137.201 249.3 136.921 249.487 136.735 249.782L133.749 255.537C133.742 255.609 133.742 255.682 133.749 255.754C133.742 255.853 133.742 255.951 133.749 256.05C133.739 256.138 133.739 256.226 133.749 256.314C133.741 256.355 133.741 256.397 133.749 256.439L136.735 258.74C136.779 258.768 136.83 258.782 136.883 258.782C136.935 258.782 136.986 258.768 137.03 258.74C137.173 258.624 137.285 258.474 137.357 258.305C137.512 257.932 137.497 257.512 137.357 257.372L135.257 255.816L140.763 252.706C140.907 252.594 141.023 252.45 141.101 252.285C141.18 252.121 141.218 251.94 141.214 251.757C141.214 251.4 141.012 251.275 140.763 251.4Z" fill="#455A64"/>
<path opacity="0.5" d="M145.366 248.756L150.871 245.645L148.772 244.09C148.585 243.95 148.57 243.53 148.772 243.157C148.974 242.784 149.207 242.582 149.394 242.722L152.38 245.023C152.419 245.052 152.451 245.089 152.473 245.132C152.489 245.214 152.489 245.299 152.473 245.381C152.489 245.479 152.489 245.579 152.473 245.677C152.473 245.677 152.473 245.676 152.473 245.754C152.449 245.83 152.417 245.902 152.38 245.972L149.394 251.664C149.329 251.803 149.227 251.922 149.098 252.006C149.055 252.049 148.996 252.073 148.935 252.073C148.874 252.073 148.815 252.049 148.772 252.006C148.684 251.855 148.638 251.683 148.638 251.509C148.638 251.334 148.684 251.162 148.772 251.011L150.871 246.967L145.366 250.155C145.117 250.295 144.93 250.156 144.93 249.72C144.921 249.536 144.955 249.353 145.031 249.185C145.106 249.017 145.221 248.87 145.366 248.756Z" fill="#455A64"/>
<path opacity="0.5" d="M163.391 232.893C163.391 232.566 163.064 232.613 162.924 232.97L162.162 234.821C160.871 234.681 159.316 235.925 158.258 238.165C156.905 241.042 156.905 244.386 158.258 245.77C158.591 246.081 159.021 246.266 159.475 246.294C159.929 246.323 160.378 246.192 160.747 245.925C161.846 245.188 162.706 244.144 163.22 242.924C163.306 242.778 163.351 242.611 163.351 242.442C163.351 242.272 163.306 242.106 163.22 241.96C163.033 241.788 162.753 241.96 162.582 242.317C161.571 244.463 159.907 245.428 158.896 244.448C157.885 243.468 157.87 240.918 158.896 238.756C159.611 237.201 160.653 236.314 161.571 236.268L160.996 237.652C160.856 238.009 160.996 238.351 161.213 238.196L163.468 236.734C163.555 236.656 163.622 236.56 163.665 236.452C163.708 236.344 163.726 236.228 163.717 236.112L163.391 232.893Z" fill="#455A64"/>
<path opacity="0.5" d="M222.629 187.045L224.635 182.784C224.753 182.583 224.815 182.355 224.815 182.123C224.815 181.891 224.753 181.662 224.635 181.462C224.402 181.244 224.013 181.462 223.78 181.96L221.773 186.205L219.752 184.277C219.518 184.044 219.13 184.277 218.896 184.775C218.779 184.975 218.717 185.203 218.717 185.436C218.717 185.668 218.779 185.896 218.896 186.096L220.903 188.025L218.896 192.302C218.779 192.502 218.717 192.73 218.717 192.963C218.717 193.195 218.779 193.423 218.896 193.624C218.958 193.674 219.035 193.702 219.114 193.702C219.194 193.702 219.271 193.674 219.332 193.624C219.525 193.504 219.672 193.323 219.752 193.11L221.773 188.849L223.78 190.793C223.839 190.843 223.913 190.87 223.99 190.87C224.066 190.87 224.141 190.843 224.2 190.793C224.393 190.67 224.545 190.491 224.635 190.28C224.753 190.08 224.815 189.851 224.815 189.619C224.815 189.387 224.753 189.158 224.635 188.958L222.629 187.045Z" fill="#455A64"/>
<path d="M170.747 238.118V231.026C170.818 229.809 171.175 228.626 171.789 227.573C172.402 226.519 173.254 225.625 174.277 224.961L489.751 43.0015C491.695 41.8818 493.266 42.7838 493.266 45.0233V52.0218C493.198 53.24 492.845 54.4253 492.234 55.4816C491.624 56.538 490.773 57.4359 489.751 58.1026L174.277 240.156C172.317 241.275 170.747 240.358 170.747 238.118Z" fill="white"/>
<path d="M484.946 58.5537C484.864 58.57 484.78 58.57 484.697 58.5537C484.533 58.4713 484.4 58.3362 484.322 58.1699C484.243 58.0036 484.222 57.8157 484.262 57.6361L484.604 54.6967L483.173 53.6703C483.071 53.5957 482.99 53.497 482.935 53.383C482.881 53.269 482.856 53.1432 482.862 53.0171C482.863 52.8032 482.911 52.592 483.002 52.3985C483.094 52.205 483.226 52.034 483.391 51.8974L485.444 50.3422C485.513 50.28 485.561 50.1988 485.584 50.1089L486.501 47.0918C486.554 46.8717 486.668 46.6712 486.83 46.5141C486.993 46.357 487.197 46.2498 487.419 46.2053C487.558 46.2006 487.695 46.2363 487.813 46.3081C487.932 46.3799 488.028 46.4847 488.088 46.6097L488.912 48.3826L490.778 47.6672C490.91 47.611 491.055 47.5973 491.195 47.628C491.334 47.6587 491.46 47.7322 491.556 47.8383C491.678 48.0255 491.744 48.2444 491.744 48.4681C491.744 48.6919 491.678 48.9107 491.556 49.098L490.001 51.8974C489.984 51.9795 489.984 52.0641 490.001 52.1462L490.358 54.6812C490.38 54.8886 490.355 55.0982 490.285 55.2946C490.215 55.491 490.102 55.6693 489.954 55.8165C489.871 55.9152 489.766 55.9923 489.646 56.0411C489.527 56.0898 489.398 56.1089 489.27 56.0964L487.419 55.8632L485.631 58.2582C485.544 58.3533 485.438 58.429 485.32 58.4799C485.202 58.5309 485.075 58.556 484.946 58.5537ZM483.764 52.8461L485.195 53.8725C485.315 53.973 485.406 54.104 485.458 54.2518C485.51 54.3996 485.521 54.5587 485.491 54.7123L485.319 57.1384L486.875 55.1789C486.964 55.0526 487.083 54.9507 487.221 54.8827C487.36 54.8148 487.514 54.7829 487.668 54.7901L489.519 55.0234C489.519 55.0234 489.596 54.7745 489.519 54.6501L489.161 52.1151C489.136 51.8345 489.196 51.5529 489.332 51.3064L490.887 48.507L489.176 49.1602C489.095 49.1959 489.007 49.215 488.918 49.2163C488.829 49.2176 488.741 49.2011 488.658 49.1678C488.575 49.1344 488.5 49.085 488.437 49.0223C488.374 48.9595 488.324 48.8848 488.29 48.8025L487.528 47.2473L486.61 50.2644C486.534 50.5418 486.37 50.7872 486.144 50.9642L484.091 52.5195C483.946 52.5849 483.83 52.701 483.764 52.8461Z" fill="#E0E0E0"/>
<g opacity="0.5">
<path d="M497.372 42.0375C497.103 42.0403 496.84 41.9533 496.626 41.7904C496.411 41.6275 496.257 41.3978 496.188 41.1376C496.118 40.8774 496.137 40.6015 496.242 40.3533C496.346 40.1051 496.531 39.8988 496.765 39.7669L506.625 34.0749C506.763 33.9942 506.916 33.9415 507.074 33.9197C507.232 33.8979 507.393 33.9075 507.548 33.9479C507.702 33.9884 507.847 34.0589 507.974 34.1554C508.102 34.2518 508.209 34.3725 508.289 34.5103C508.37 34.6482 508.423 34.8006 508.445 34.9588C508.466 35.117 508.457 35.278 508.416 35.4325C508.376 35.5871 508.305 35.7321 508.209 35.8594C508.113 35.9867 507.992 36.0937 507.854 36.1744L497.978 41.882C497.793 41.986 497.584 42.0397 497.372 42.0375Z" fill="#455A64"/>
<path d="M497.373 47.7452C497.159 47.7449 496.949 47.6888 496.763 47.5824C496.578 47.476 496.423 47.3231 496.315 47.1387C496.235 47 496.183 46.8468 496.162 46.6878C496.141 46.5289 496.152 46.3673 496.194 46.2126C496.236 46.0579 496.308 45.913 496.406 45.7863C496.504 45.6596 496.627 45.5537 496.766 45.4746L506.626 39.767C506.904 39.6394 507.219 39.6199 507.51 39.7122C507.802 39.8045 508.048 40.0021 508.202 40.2663C508.355 40.5305 508.405 40.8424 508.34 41.1412C508.276 41.44 508.103 41.7041 507.855 41.8821L497.979 47.5742C497.795 47.683 497.586 47.7419 497.373 47.7452Z" fill="#455A64"/>
<path d="M497.372 53.4372C497.158 53.4368 496.948 53.3807 496.762 53.2743C496.577 53.168 496.422 53.015 496.314 52.8307C496.234 52.6932 496.182 52.5411 496.162 52.3833C496.141 52.2256 496.152 52.0652 496.194 51.9118C496.236 51.7583 496.308 51.6147 496.406 51.4894C496.504 51.3642 496.626 51.2597 496.765 51.1821L506.625 45.4745C506.763 45.3938 506.915 45.3411 507.074 45.3193C507.232 45.2976 507.393 45.3072 507.547 45.3476C507.702 45.388 507.847 45.4585 507.974 45.555C508.102 45.6515 508.209 45.7721 508.289 45.91C508.37 46.0478 508.423 46.2002 508.444 46.3585C508.466 46.5167 508.457 46.6777 508.416 46.8322C508.376 46.9867 508.305 47.1318 508.209 47.2591C508.112 47.3863 507.992 47.4934 507.854 47.574L497.978 53.2817C497.793 53.3857 497.584 53.4393 497.372 53.4372Z" fill="#455A64"/>
</g>
<path d="M124.681 249.767V272.582L118.087 268.771V245.972L124.681 249.767Z" fill="#E0E0E0"/>
<path d="M390.401 129.447L390.245 129.538L390.696 127.854L390.849 127.764L391.3 128.922L391.144 129.013L390.777 128.031L390.768 128.036L390.401 129.447ZM390.459 128.858L391.086 128.491V128.644L390.459 129.011V128.858ZM391.491 128.81V127.389L391.632 127.306V127.831L391.644 127.824C391.655 127.799 391.669 127.767 391.687 127.728C391.706 127.688 391.733 127.646 391.768 127.603C391.803 127.559 391.85 127.52 391.91 127.485C391.988 127.44 392.056 127.422 392.115 127.433C392.174 127.443 392.22 127.48 392.254 127.543C392.287 127.606 392.303 127.693 392.303 127.805C392.303 127.918 392.287 128.025 392.254 128.128C392.22 128.229 392.174 128.32 392.116 128.4C392.057 128.479 391.989 128.541 391.913 128.586C391.853 128.62 391.806 128.637 391.771 128.635C391.735 128.632 391.708 128.622 391.689 128.604C391.669 128.586 391.655 128.57 391.644 128.557L391.627 128.566V128.73L391.491 128.81ZM391.63 128.196C391.63 128.276 391.64 128.341 391.66 128.391C391.681 128.44 391.711 128.471 391.75 128.483C391.789 128.494 391.837 128.483 391.893 128.45C391.953 128.415 392.002 128.368 392.041 128.309C392.081 128.249 392.111 128.183 392.131 128.11C392.152 128.036 392.162 127.961 392.162 127.885C392.162 127.81 392.152 127.748 392.132 127.7C392.112 127.651 392.083 127.62 392.043 127.608C392.003 127.596 391.953 127.607 391.893 127.642C391.836 127.676 391.788 127.721 391.748 127.777C391.709 127.834 391.68 127.898 391.66 127.969C391.64 128.041 391.63 128.116 391.63 128.196ZM392.893 128.012C392.81 128.061 392.737 128.081 392.675 128.071C392.612 128.062 392.564 128.027 392.528 127.965C392.494 127.903 392.476 127.817 392.476 127.707C392.476 127.595 392.494 127.488 392.528 127.385C392.564 127.282 392.612 127.189 392.675 127.107C392.737 127.024 392.81 126.959 392.893 126.91C392.976 126.862 393.049 126.842 393.111 126.852C393.174 126.861 393.223 126.897 393.258 126.959C393.293 127.021 393.31 127.108 393.31 127.219C393.31 127.329 393.293 127.436 393.258 127.538C393.223 127.641 393.174 127.734 393.111 127.816C393.049 127.898 392.976 127.964 392.893 128.012ZM392.893 127.865C392.956 127.828 393.008 127.779 393.049 127.718C393.09 127.657 393.12 127.59 393.14 127.517C393.159 127.445 393.169 127.373 393.169 127.302C393.169 127.23 393.159 127.17 393.14 127.12C393.12 127.07 393.09 127.037 393.049 127.023C393.008 127.009 392.956 127.021 392.893 127.057C392.83 127.094 392.778 127.144 392.738 127.205C392.697 127.267 392.667 127.335 392.647 127.408C392.628 127.48 392.618 127.553 392.618 127.624C392.618 127.695 392.628 127.756 392.647 127.805C392.667 127.855 392.697 127.886 392.738 127.9C392.778 127.914 392.83 127.902 392.893 127.865ZM394.106 126.845V126.215L394.247 126.133V127.199L394.106 127.281V127.101L394.097 127.106C394.075 127.173 394.041 127.239 393.996 127.303C393.95 127.367 393.893 127.42 393.823 127.46C393.766 127.494 393.715 127.509 393.67 127.506C393.625 127.503 393.59 127.479 393.565 127.435C393.539 127.39 393.526 127.322 393.526 127.232V126.554L393.668 126.472V127.138C393.668 127.216 393.686 127.267 393.724 127.291C393.762 127.315 393.81 127.31 393.869 127.276C393.904 127.255 393.94 127.224 393.976 127.182C394.013 127.139 394.044 127.089 394.068 127.032C394.094 126.974 394.106 126.912 394.106 126.845ZM394.907 125.747V125.886L394.43 126.165V126.026L394.907 125.747ZM394.569 125.689L394.71 125.607V126.623C394.71 126.669 394.716 126.7 394.728 126.717C394.74 126.732 394.755 126.739 394.773 126.736C394.792 126.732 394.812 126.724 394.832 126.712C394.848 126.703 394.861 126.695 394.871 126.687C394.881 126.679 394.889 126.672 394.895 126.667L394.923 126.798C394.914 126.808 394.9 126.82 394.883 126.834C394.866 126.848 394.844 126.863 394.818 126.879C394.778 126.902 394.739 126.915 394.701 126.918C394.663 126.92 394.631 126.908 394.606 126.882C394.581 126.856 394.569 126.812 394.569 126.75V125.689ZM396.174 125.637V125.006L396.315 124.924V125.99L396.174 126.072V125.892L396.164 125.898C396.143 125.964 396.109 126.03 396.064 126.094C396.018 126.159 395.961 126.211 395.891 126.252C395.833 126.285 395.782 126.3 395.738 126.298C395.693 126.294 395.658 126.27 395.632 126.226C395.607 126.181 395.594 126.113 395.594 126.023V125.345L395.735 125.263V125.929C395.735 126.007 395.754 126.058 395.792 126.082C395.829 126.106 395.878 126.101 395.937 126.067C395.972 126.046 396.007 126.015 396.044 125.973C396.081 125.93 396.111 125.881 396.136 125.823C396.161 125.765 396.174 125.703 396.174 125.637ZM397.226 124.63L397.099 124.746C397.091 124.726 397.079 124.709 397.064 124.695C397.048 124.68 397.028 124.673 397.001 124.673C396.975 124.673 396.941 124.685 396.9 124.71C396.844 124.742 396.797 124.785 396.759 124.837C396.722 124.888 396.704 124.937 396.704 124.983C396.704 125.023 396.716 125.048 396.742 125.057C396.767 125.065 396.807 125.062 396.862 125.046L396.998 125.005C397.081 124.98 397.142 124.979 397.182 125.003C397.223 125.027 397.243 125.076 397.243 125.15C397.243 125.211 397.228 125.275 397.197 125.341C397.167 125.406 397.125 125.469 397.071 125.528C397.017 125.587 396.955 125.638 396.883 125.68C396.789 125.735 396.712 125.756 396.65 125.745C396.589 125.734 396.55 125.688 396.533 125.607L396.668 125.489C396.68 125.539 396.705 125.568 396.74 125.576C396.776 125.584 396.823 125.571 396.881 125.537C396.947 125.498 396.999 125.452 397.038 125.396C397.077 125.341 397.097 125.29 397.097 125.244C397.097 125.207 397.085 125.183 397.063 125.171C397.041 125.158 397.006 125.16 396.96 125.174L396.807 125.222C396.722 125.248 396.66 125.249 396.621 125.223C396.582 125.197 396.562 125.147 396.562 125.074C396.562 125.013 396.577 124.952 396.606 124.888C396.635 124.825 396.676 124.765 396.726 124.709C396.777 124.653 396.835 124.606 396.9 124.568C396.991 124.515 397.063 124.496 397.115 124.512C397.167 124.528 397.204 124.567 397.226 124.63Z" fill="#455A64"/>
<path opacity="0.1" d="M141.524 350.171L248.912 288.165V463.235L141.213 525.07L141.524 350.171Z" fill="#0A6A56"/>
<path opacity="0.15" d="M272.582 277.729L402.131 202.939C404.743 201.384 406.796 202.566 406.796 205.474C406.699 207.083 406.226 208.647 405.416 210.041C404.606 211.434 403.481 212.619 402.131 213.499L272.566 289.129C269.969 290.684 267.9 289.44 267.9 286.439V285.894C267.988 284.262 268.457 282.673 269.27 281.255C270.083 279.837 271.217 278.629 272.582 277.729Z" fill="#0A6A56"/>
<path opacity="0.1" d="M271.228 300.389L485.599 176.625C487.465 175.552 488.973 176.314 488.973 178.32C488.891 179.453 488.543 180.551 487.956 181.524C487.37 182.497 486.562 183.317 485.599 183.919L271.228 307.683C269.378 308.756 267.869 307.994 267.869 305.988C267.951 304.856 268.297 303.76 268.881 302.788C269.465 301.815 270.269 300.993 271.228 300.389Z" fill="#0A6A56"/>
<path opacity="0.1" d="M271.228 315.039L485.599 191.275C487.465 190.202 488.973 190.964 488.973 192.97C488.891 194.103 488.543 195.201 487.956 196.174C487.37 197.147 486.562 197.967 485.599 198.569L271.228 322.333C269.378 323.406 267.869 322.644 267.869 320.622C267.953 319.493 268.301 318.4 268.884 317.431C269.468 316.461 270.271 315.642 271.228 315.039Z" fill="#0A6A56"/>
<path opacity="0.1" d="M271.228 329.673L485.599 205.91C487.465 204.837 488.973 205.599 488.973 207.621C488.889 208.751 488.539 209.845 487.953 210.815C487.367 211.785 486.56 212.604 485.599 213.204L271.228 336.936C269.378 338.009 267.869 337.247 267.869 335.225C267.96 334.103 268.311 333.017 268.894 332.053C269.477 331.09 270.276 330.275 271.228 329.673Z" fill="#0A6A56"/>
<path opacity="0.1" d="M271.228 344.323L485.599 220.56C487.465 219.487 488.973 220.249 488.973 222.255C488.891 223.388 488.543 224.486 487.956 225.458C487.37 226.431 486.562 227.252 485.599 227.854L271.228 351.617C269.378 352.69 267.869 351.928 267.869 349.922C267.951 348.791 268.297 347.695 268.881 346.722C269.465 345.75 270.269 344.928 271.228 344.323Z" fill="#0A6A56"/>
<path opacity="0.1" d="M271.228 358.974L420.808 271.882C422.659 270.809 424.168 271.571 424.168 273.593C424.084 274.721 423.736 275.814 423.153 276.784C422.569 277.754 421.766 278.573 420.808 279.176L271.228 366.268C269.378 367.341 267.869 366.579 267.869 364.557C267.953 363.428 268.301 362.335 268.884 361.365C269.468 360.396 270.271 359.576 271.228 358.974Z" fill="#0A6A56"/>
<path opacity="0.1" d="M271.228 388.258L485.599 264.495C487.465 263.421 488.973 264.183 488.973 266.19C488.891 267.323 488.543 268.42 487.956 269.393C487.37 270.366 486.562 271.187 485.599 271.788L271.228 395.552C269.378 396.625 267.869 395.863 267.869 393.857C267.951 392.726 268.297 391.629 268.881 390.657C269.465 389.684 270.269 388.863 271.228 388.258Z" fill="#0A6A56"/>
<path opacity="0.1" d="M271.228 402.908L485.599 279.145C487.465 278.072 488.973 278.834 488.973 280.84C488.891 281.973 488.543 283.07 487.956 284.043C487.37 285.016 486.562 285.837 485.599 286.439L271.228 410.202C269.378 411.275 267.869 410.513 267.869 408.491C267.953 407.363 268.301 406.27 268.884 405.3C269.468 404.33 270.271 403.511 271.228 402.908Z" fill="#0A6A56"/>
<path opacity="0.1" d="M271.228 417.543L485.599 293.779C487.465 292.706 488.973 293.468 488.973 295.49C488.889 296.62 488.539 297.715 487.953 298.685C487.367 299.655 486.56 300.473 485.599 301.073L271.228 424.852C269.378 425.925 267.869 425.163 267.869 423.142C267.953 422.011 268.301 420.916 268.884 419.943C269.467 418.971 270.27 418.149 271.228 417.543Z" fill="#0A6A56"/>
<path opacity="0.1" d="M271.228 432.193L350.015 386.221C351.866 385.148 353.375 385.91 353.375 387.932C353.291 389.06 352.943 390.153 352.359 391.123C351.776 392.093 350.973 392.912 350.015 393.515L271.244 439.487C269.393 440.56 267.885 439.798 267.885 437.792C267.965 436.662 268.309 435.566 268.89 434.594C269.47 433.621 270.272 432.799 271.228 432.193Z" fill="#0A6A56"/>
<path d="M557.699 348.134C569.099 311.151 580.188 286.781 568.881 279.238C558.368 281.197 553.656 286.407 551.416 300.28C549.068 314.821 544.185 335.101 541.339 346.796C538.879 356.57 535.358 366.045 530.841 375.054C530.16 376.302 529.057 377.267 527.73 377.776C524.216 379.16 522.536 380.886 519.674 383.002C517.419 384.557 515.771 384.774 515.88 385.443C516.065 386.194 516.536 386.842 517.193 387.249C517.85 387.656 518.64 387.789 519.395 387.62C521.084 387.301 522.729 386.779 524.293 386.065C522.948 389.473 520.854 392.534 518.166 395.023C512.645 399.689 513.5 404.246 522.349 404.774C525.46 404.961 532.878 402.068 539.706 390.451C542.014 386.121 544.045 381.648 545.786 377.061C550.545 365.148 555.413 355.599 557.699 348.134Z" fill="#FFA8A7"/>
<path d="M570.857 278.802C570.857 278.802 562.085 278.351 556.766 284.215C551.448 290.078 545.258 325.101 545.258 325.101C545.258 325.101 551.074 333.095 566.409 329.767L570.857 278.802Z" fill="#0A6A56"/>
<path opacity="0.3" d="M570.857 278.802C570.857 278.802 562.085 278.351 556.766 284.215C551.448 290.078 545.258 325.101 545.258 325.101C545.258 325.101 551.074 333.095 566.409 329.767L570.857 278.802Z" fill="black"/>
<path d="M611.93 527.263H600.157V548.258H611.93V527.263Z" fill="#FFA8A7"/>
<path d="M571.105 526.143L559.332 526.578L558.741 504.354L571.105 503.935V526.143Z" fill="#FFA8A7"/>
<path d="M613.594 345.49C613.594 357.201 611.867 451.446 611.867 451.446C612.132 454.821 615.165 461.042 614.511 473.981C613.625 491.555 612.427 537.745 612.427 537.745C610.407 538.785 608.176 539.351 605.904 539.399C603.633 539.448 601.38 538.978 599.317 538.025C599.317 538.025 588.182 474.028 586.082 456.594C584.231 441.4 581.105 390.202 581.105 390.202L574.729 449.72C576.088 456.126 576.579 462.685 576.191 469.222C575.631 477.278 571.852 519.253 571.852 519.253C569.817 520.453 567.535 521.173 565.179 521.359C562.824 521.545 560.458 521.192 558.259 520.327C558.259 520.327 551.556 457.123 551.416 449.72C551.261 441.291 555.336 345.35 555.336 345.35L613.594 345.49Z" fill="#37474F"/>
<path d="M600.157 542.224V540.467C599.022 540.98 596.409 551.353 591.743 555.832C588.026 559.347 582.956 563.421 581.666 567.356C580.375 571.291 588.726 573.717 592.194 573.079C596.222 572.333 603.221 569.378 604.963 566.625C606.704 563.873 607.544 559.845 608.975 557.838C610.406 555.832 613.641 553.593 614.449 551.26C614.885 549.984 614.449 547.185 613.781 544.821C613.112 542.457 612.645 540.264 611.93 540.467V541.804C610.279 543.173 608.196 543.912 606.051 543.888C604.325 543.935 600.141 543.577 600.157 542.224Z" fill="#263238"/>
<path d="M559.208 522.784C558.601 522.784 558.103 523.701 556.75 525.226C554.752 527.334 552.412 529.09 549.83 530.42C545.413 532.722 536.844 536.252 532.956 538.072C530.545 539.207 530.654 542.255 533.158 543.997C535.662 545.739 541.711 546.983 548.974 545.288C552.924 544.37 558.088 540.622 561.338 540.762C564.589 540.902 570.669 540.933 573.111 539.207C575.553 537.481 574.557 533.795 573.873 530.622C573.127 527.17 572.209 521.773 571.105 522.006V523.204C569.69 525.428 562.38 526.314 559.27 524.759L559.208 522.784Z" fill="#263238"/>
<path d="M581.106 390.218C574.979 388.217 569.378 384.869 564.714 380.42C564.714 380.42 567.824 386.641 577.28 392.333L575.274 445.49L581.106 390.218Z" fill="#263238"/>
<path d="M607.466 281.602C607.466 281.602 616.673 282.457 616.02 300L613.983 327.994V369.984C605.32 379.798 566.937 379.067 553.796 369.191C553.796 369.191 555.273 319.533 556.16 300.42C556.797 286.843 559.923 280 573.267 278.507L589.675 279.222L607.466 281.602Z" fill="#0A6A56"/>
<path opacity="0.3" d="M581.292 290.809L579.177 305.552L574.263 305.459L579.815 306.345L581.292 290.809Z" fill="black"/>
<path d="M593.578 242.068C593.674 246.815 591.882 251.406 588.595 254.832C585.309 258.258 580.797 260.24 576.051 260.342C566.362 260.342 558.943 252.146 558.508 242.084C557.746 224.246 566.362 223.81 576.051 223.81C580.794 223.912 585.304 225.892 588.59 229.315C591.876 232.738 593.67 237.324 593.578 242.068Z" fill="#263238"/>
<path d="M603.516 251.104C603.516 251.104 600.825 264.261 599.752 266.423C599.058 267.742 597.874 268.736 596.455 269.191L596.642 259.938L603.516 251.104Z" fill="#263238"/>
<path d="M600.188 232.255C600.188 232.255 602.117 231.773 604.17 234.977C605.927 237.714 606.331 243.872 603.563 251.104L598.509 251.711L600.188 232.255Z" fill="#263238"/>
<path d="M596.984 251.711C597.995 252.348 599.442 250.311 600.701 248.942C601.961 247.574 606.036 245.723 608.089 250.187C610.141 254.65 606.285 260.778 603.065 261.835C597.513 263.655 596.689 259.938 596.689 259.938L596.253 280.778C588.897 292.177 572.21 291.757 578.213 280.233V273.888C575.742 274.299 573.233 274.434 570.732 274.292C566.658 273.624 564.092 270.28 562.848 265.677C560.857 258.289 560.11 252.333 561.79 237.792C563.656 221.851 581.448 221.711 591.075 228.072C600.701 234.432 596.984 251.711 596.984 251.711Z" fill="#FFA8A7"/>
<path d="M596.346 276.112C594.635 279.614 592.177 282.698 589.146 285.148C586.569 287.051 583.58 288.319 580.421 288.849C583.027 290.615 585.163 292.991 586.642 295.77C588.492 299.813 601.447 288.662 601.323 280.746C601.323 280.746 599.301 272.799 596.502 272.302L596.346 276.112Z" fill="#263238"/>
<path d="M580.422 288.849C580.422 288.849 576.425 286.874 578.213 280.233V273.888L576.456 274.121C574.408 276.117 572.954 278.642 572.257 281.415C571.852 283.235 570.857 292.442 572.614 294.261C574.372 296.081 576.829 289.347 580.422 288.849Z" fill="#263238"/>
<path d="M590.171 234.292C590.626 234.193 591.099 234.22 591.54 234.37C593.095 235.054 593.375 239.751 593.639 241.104C594.526 245.661 595.272 253.39 596.983 253.422C597.496 253.422 599.44 250.078 600.7 248.88C602.457 247.216 600.187 232.193 600.187 232.193C600.65 230.896 600.739 229.494 600.441 228.149C600.144 226.803 599.474 225.569 598.507 224.588C595.397 220.98 590.389 220.171 585.863 219.922C580.529 219.627 575.117 220.031 569.86 218.865C568.209 218.406 566.531 218.048 564.837 217.792C564.766 217.761 564.689 217.746 564.611 217.746C564.534 217.746 564.457 217.761 564.386 217.792C564.215 217.932 564.246 218.196 564.293 218.414C564.622 219.989 565.177 221.508 565.941 222.924C562.812 222.677 559.722 222.066 556.734 221.104C556.562 221.05 556.378 221.05 556.205 221.104C555.848 221.213 555.785 221.68 555.817 222.053C556.019 225.817 557.807 231.509 560.871 233.717C563.587 235.495 566.74 236.491 569.985 236.594C578.227 236.905 583.297 235.163 590.171 234.292Z" fill="#263238"/>
<path d="M600.187 233.048L606.33 229.611C606.142 229.188 605.869 228.809 605.526 228.498C605.183 228.187 604.78 227.95 604.341 227.804C603.902 227.657 603.437 227.604 602.976 227.648C602.515 227.691 602.069 227.83 601.665 228.056C600.847 228.561 600.245 229.349 599.972 230.27C599.699 231.191 599.776 232.18 600.187 233.048Z" fill="#263238"/>
<path d="M578.229 273.888C578.229 273.888 587.327 271.975 590.515 270.218C592.403 269.179 593.937 267.597 594.916 265.676C594.442 267.607 593.591 269.425 592.412 271.026C590.095 274.137 578.229 276.407 578.229 276.407V273.888Z" fill="#F28F8F"/>
<path d="M580.421 249.347C580.454 249.698 580.589 250.031 580.808 250.307C581.026 250.583 581.321 250.789 581.655 250.901C581.989 251.013 582.348 251.026 582.689 250.937C583.03 250.849 583.338 250.663 583.576 250.403C583.813 250.143 583.97 249.82 584.028 249.473C584.085 249.125 584.041 248.768 583.899 248.446C583.758 248.123 583.526 247.848 583.232 247.655C582.937 247.462 582.593 247.358 582.241 247.356C581.99 247.364 581.742 247.422 581.514 247.527C581.285 247.632 581.08 247.782 580.911 247.967C580.741 248.153 580.61 248.371 580.526 248.608C580.442 248.845 580.407 249.096 580.421 249.347Z" fill="#263238"/>
<path d="M583.299 241.477L587.202 243.717C587.484 243.178 587.56 242.555 587.413 241.965C587.267 241.374 586.91 240.858 586.409 240.513C586.148 240.346 585.854 240.238 585.546 240.196C585.239 240.155 584.926 240.181 584.63 240.273C584.334 240.365 584.061 240.52 583.831 240.728C583.601 240.936 583.42 241.192 583.299 241.477Z" fill="#263238"/>
<path d="M579.053 262.473L574.885 264.028C574.967 264.314 575.107 264.581 575.297 264.811C575.486 265.041 575.721 265.229 575.986 265.365C576.252 265.5 576.542 265.58 576.84 265.599C577.137 265.618 577.435 265.575 577.715 265.474C578.269 265.227 578.713 264.784 578.96 264.23C579.206 263.676 579.24 263.05 579.053 262.473Z" fill="#F28F8F"/>
<path d="M563.671 243.141L567.232 240.28C567.072 240.029 566.86 239.816 566.61 239.653C566.361 239.491 566.08 239.383 565.786 239.337C565.492 239.292 565.191 239.309 564.904 239.389C564.618 239.468 564.351 239.607 564.122 239.798C563.647 240.201 563.337 240.765 563.254 241.383C563.171 242.001 563.319 242.627 563.671 243.141Z" fill="#263238"/>
<path d="M565.242 248.803C565.231 249.051 565.27 249.299 565.356 249.532C565.442 249.766 565.574 249.98 565.743 250.162C565.912 250.344 566.116 250.491 566.342 250.594C566.568 250.697 566.813 250.754 567.061 250.762C567.585 250.762 568.088 250.554 568.458 250.184C568.829 249.813 569.037 249.311 569.037 248.787C569.037 248.263 568.829 247.761 568.458 247.39C568.088 247.02 567.585 246.812 567.061 246.812C566.558 246.84 566.086 247.064 565.746 247.436C565.406 247.808 565.225 248.299 565.242 248.803Z" fill="#263238"/>
<path d="M575.009 247.278L574.792 258.802L568.244 257.294L575.009 247.278Z" fill="#F28F8F"/>
<path d="M625.382 258.865C628.01 255.381 633.329 263.11 635.786 268.445C638.243 273.779 638.29 276.796 636.268 278.911C634.247 281.026 630.436 279.751 626.626 274.697C622.816 269.642 623.873 261.431 625.382 258.865Z" fill="#0A6A56"/>
<path opacity="0.5" d="M625.382 258.865C628.01 255.381 633.329 263.11 635.786 268.445C638.243 273.779 638.29 276.796 636.268 278.911C634.247 281.026 630.436 279.751 626.626 274.697C622.816 269.642 623.873 261.431 625.382 258.865Z" fill="black"/>
<path d="M643.951 259.891C634.62 281.664 621.634 293.935 615.802 307.947C608.166 307.434 602.209 288.974 607.901 281.089C607.901 281.089 630.265 256.874 632.287 247.356C634.091 238.911 636.502 224.977 636.299 217.807C636.219 216.64 635.729 215.538 634.915 214.697C632.567 212.162 632.567 210.14 631.058 207.356C629.892 205.179 628.601 204.37 628.974 203.872C629.458 203.355 630.119 203.039 630.825 202.987C631.531 202.935 632.231 203.151 632.785 203.593C633.864 204.382 634.832 205.313 635.662 206.361C635.949 203.565 635.493 200.743 634.34 198.18C631.743 192.302 632.38 189.316 640.296 191.4C645.273 192.722 648.383 196.858 649.13 208.787C649.475 213.751 649.507 218.733 649.223 223.701C648.352 232.893 647.808 242.473 646.673 250.14C646.183 253.493 645.268 256.769 643.951 259.891Z" fill="#FFA8A7"/>
<path d="M605.568 281.353L625.288 258.802C625.288 258.802 622.94 264.292 628.072 272.302C633.204 280.311 636.253 278.911 636.253 278.911C636.253 278.911 624.604 295.91 621.494 301.602C618.383 307.294 615.133 312.1 615.133 312.1C614.789 312.763 614.254 313.309 613.597 313.667C612.94 314.024 612.191 314.177 611.447 314.106C608.554 314.106 600.887 301.26 605.568 281.353Z" fill="#0A6A56"/>
<path opacity="0.3" d="M605.568 281.353L625.288 258.802C625.288 258.802 622.94 264.292 628.072 272.302C633.204 280.311 636.253 278.911 636.253 278.911C636.253 278.911 624.604 295.91 621.494 301.602C618.383 307.294 615.133 312.1 615.133 312.1C614.789 312.763 614.254 313.309 613.597 313.667C612.94 314.024 612.191 314.177 611.447 314.106C608.554 314.106 600.887 301.26 605.568 281.353Z" fill="black"/>
<path d="M445.537 332.037L454.822 344.401L444.837 355.832L431.976 340.793L445.537 332.037Z" fill="#F28F8F"/>
<path d="M415.133 303.919C423.235 304.292 427.092 305.474 431.338 310.544C435.584 315.614 456.797 346.267 456.797 346.267C456.797 346.267 453.049 356.781 444.837 355.879L429.923 340.498L415.133 303.919Z" fill="#455A64"/>
<path d="M375.382 560.715C374.805 563.94 374.493 567.207 374.448 570.482C374.34 576.392 373.251 578.507 373.111 583.359C372.94 588.911 373.904 590.995 376.221 594.106C378.539 597.216 384.386 600.062 386.89 594.79C389.394 589.518 389.067 586.065 388.259 580.606C387.45 575.148 387.326 571.866 386.859 567.574C386.424 563.779 385.926 560.902 385.926 560.902L375.382 560.715Z" fill="#263238"/>
<path d="M392.194 514.23L372.676 513.872C372.971 526.905 375.04 548.585 375.382 560.793C375.382 563.095 375.382 578.662 376.191 583.406C377.497 590.513 385.926 589.549 386.377 585.303C386.828 581.057 385.833 562.861 385.864 560.98C385.786 553.204 389.456 532.706 391.385 518.631C391.478 517.869 392.1 514.821 392.194 514.23Z" fill="#FFBDA7"/>
<path d="M420.856 550.591C420.856 550.591 419.86 550.591 419.689 551.462C419.518 552.333 419.456 553.981 419.052 555.599C418.388 558.134 418.157 560.763 418.367 563.375C418.694 565.194 422.846 567.9 425.692 568.382C428.538 568.865 432.535 571.664 434.759 573.763C438.33 576.711 442.749 578.444 447.372 578.709C452.037 578.709 455.412 577.154 456.967 574.603C458.523 572.053 455.552 571.757 450.14 568.242L445.926 565.505C437.356 559.907 434.215 556.905 431.789 551.306L420.856 550.591Z" fill="#263238"/>
<path d="M431.852 547.543C431.712 543.499 433.765 513.795 433.765 513.795L416.984 515.692C420.966 539.362 421.277 547.434 420.826 550.886C420.741 551.206 420.705 551.536 420.717 551.866C420.717 556.532 425.927 558.958 430.048 562.022C431.603 563.235 435.756 566.967 440.577 568.6C443.687 569.673 449.457 570.155 450.188 568.18C445.274 564.417 438.555 559.502 434.636 555.194C432.708 553.11 431.992 551.555 431.852 547.543Z" fill="#FFBDA7"/>
<path d="M377.201 379.487C368.056 399.487 377.543 469.907 377.543 469.907C377.263 473.157 373.546 479.533 372.178 493.826C370.545 510.684 375.179 555.863 375.179 555.863C376.814 556.854 378.68 557.398 380.591 557.439C382.502 557.48 384.39 557.017 386.066 556.096C386.066 556.096 397.87 489.72 400.063 472.955C401.913 458.305 405.459 426.112 405.459 426.112L415.537 472.862C414.059 477.583 412.987 482.421 412.333 487.325C411.385 497.185 420.996 546.719 420.996 546.719C422.728 547.434 424.588 547.783 426.462 547.746C428.335 547.708 430.18 547.285 431.882 546.501C431.882 546.501 436.128 482.519 437.03 470.638C438.585 450.669 433.22 388.383 429.565 376.563L377.201 379.487Z" fill="#0A6A56"/>
<path opacity="0.5" d="M377.201 379.487C368.056 399.487 377.543 469.907 377.543 469.907C377.263 473.157 373.546 479.533 372.178 493.826C370.545 510.684 375.179 555.863 375.179 555.863C376.814 556.854 378.68 557.398 380.591 557.439C382.502 557.48 384.39 557.017 386.066 556.096C386.066 556.096 397.87 489.72 400.063 472.955C401.913 458.305 405.459 426.112 405.459 426.112L415.537 472.862C414.059 477.583 412.987 482.421 412.333 487.325C411.385 497.185 420.996 546.719 420.996 546.719C422.728 547.434 424.588 547.783 426.462 547.746C428.335 547.708 430.18 547.285 431.882 546.501C431.882 546.501 436.128 482.519 437.03 470.638C438.585 450.669 433.22 388.383 429.565 376.563L377.201 379.487Z" fill="black"/>
<path opacity="0.2" d="M405.428 426.112L408.398 407.543C408.398 407.543 420.964 404.946 426.672 399.58C422.736 404.196 417.585 407.617 411.804 409.456L408.46 423.764L414.308 467.045L405.428 426.112Z" fill="black"/>
<path d="M381.898 317.387L394.34 320.622V294.292C387.466 292.504 381.898 296.47 381.898 303.157V317.387Z" fill="#0A6A56"/>
<path opacity="0.6" d="M381.898 317.387L394.34 320.622V294.292C387.466 292.504 381.898 296.47 381.898 303.157V317.387Z" fill="black"/>
<path d="M406.533 298.056L402.07 297.963C388.446 297.636 377.653 285.894 377.948 271.711C377.948 256.252 389.923 243.717 404.76 243.577C419.597 243.499 431.696 256.019 431.774 271.415V272.97C431.401 287.169 420.126 298.351 406.533 298.056Z" fill="#0A6A56"/>
<path opacity="0.6" d="M406.533 298.056L402.07 297.963C388.446 297.636 377.653 285.894 377.948 271.711C377.948 256.252 389.923 243.717 404.76 243.577C419.597 243.499 431.696 256.019 431.774 271.415V272.97C431.401 287.169 420.126 298.351 406.533 298.056Z" fill="black"/>
<path d="M385.678 250.031C385.57 249.58 385.369 249.156 385.09 248.786C384.81 248.415 384.457 248.107 384.053 247.879C383.649 247.652 383.202 247.51 382.74 247.462C382.278 247.415 381.812 247.464 381.37 247.605L382.568 252.27C382.32 251.956 382.014 251.692 381.666 251.493C381.262 251.265 380.815 251.124 380.354 251.079C379.893 251.034 379.427 251.087 378.987 251.234C378.547 251.38 378.143 251.617 377.801 251.93C377.459 252.243 377.186 252.623 377 253.048L383.065 256.61C383.381 256.002 383.521 255.318 383.47 254.634C384.338 254.271 385.042 253.601 385.449 252.753C385.856 251.904 385.938 250.936 385.678 250.031Z" fill="#0A6A56"/>
<path opacity="0.6" d="M385.678 250.031C385.57 249.58 385.369 249.156 385.09 248.786C384.81 248.415 384.457 248.107 384.053 247.879C383.649 247.652 383.202 247.51 382.74 247.462C382.278 247.415 381.812 247.464 381.37 247.605L382.568 252.27C382.32 251.956 382.014 251.692 381.666 251.493C381.262 251.265 380.815 251.124 380.354 251.079C379.893 251.034 379.427 251.087 378.987 251.234C378.547 251.38 378.143 251.617 377.801 251.93C377.459 252.243 377.186 252.623 377 253.048L383.065 256.61C383.381 256.002 383.521 255.318 383.47 254.634C384.338 254.271 385.042 253.601 385.449 252.753C385.856 251.904 385.938 250.936 385.678 250.031Z" fill="black"/>
<path d="M393.033 304.992C388.845 305.56 384.692 306.36 380.592 307.387C385.413 319.207 377.855 337.465 377.855 337.465L384.993 359.44C380.063 369.533 376.004 374.541 374.324 382.768C378.865 391.633 410.918 400.093 431.789 383.935C431.789 383.935 431.12 361.493 428.461 348.414C435.288 335.085 434.184 331.166 432.785 326.516C429.534 315.707 422.971 311.555 415.148 303.935L410.483 303.437L393.033 304.992Z" fill="#37474F"/>
<path d="M385.786 368.242C389.659 364.277 397.87 363.141 397.87 363.141L390.327 358.849L381.898 338.491C385.435 331.562 387.183 323.858 386.984 316.081L382.131 314.914C382.722 325.692 377.839 337.48 377.839 337.48L384.977 359.456C380.047 369.549 375.988 374.557 374.309 382.784C377.419 388.849 393.422 394.728 409.907 392.644C387.823 391.151 382.069 372.084 385.786 368.242Z" fill="#263238"/>
<path d="M408.104 392.815L409.006 392.721C408.703 392.727 408.401 392.758 408.104 392.815Z" fill="#E6E6E6"/>
<path d="M421.758 257.356C424.433 259.813 427.777 265.132 427.512 280.684C427.279 293.904 423.189 297.185 421.12 298.134C419.052 299.082 415.086 298.538 411.214 297.885V303.359C411.214 303.359 416.315 309.02 416.004 312.69C415.693 316.361 408.725 317.838 403.702 314.246C400.163 311.566 397.021 308.398 394.371 304.837V288.211C394.371 288.211 392.1 290.529 388.15 287.045C385.039 284.152 383.857 279.269 386.33 276.625C386.965 275.999 387.744 275.539 388.598 275.284C389.453 275.03 390.357 274.989 391.231 275.165C392.104 275.342 392.922 275.731 393.61 276.297C394.299 276.863 394.838 277.59 395.179 278.414C401.107 277.794 406.877 276.13 412.225 273.499C415.232 272.053 417.743 269.747 419.439 266.873C421.136 264 421.943 260.688 421.758 257.356Z" fill="#FFBDA7"/>
<path d="M411.198 277.714C411.197 278.016 411.108 278.311 410.942 278.563C410.776 278.816 410.54 279.014 410.263 279.135C409.986 279.255 409.68 279.293 409.383 279.242C409.085 279.191 408.808 279.055 408.586 278.85C408.365 278.645 408.208 278.379 408.134 278.086C408.061 277.793 408.075 277.485 408.174 277.2C408.272 276.914 408.452 276.664 408.691 276.479C408.93 276.294 409.218 276.183 409.519 276.159C409.946 276.15 410.359 276.307 410.672 276.597C410.986 276.887 411.174 277.287 411.198 277.714Z" fill="#263238"/>
<path d="M411.804 288.725L415.957 290.078C415.89 290.361 415.767 290.628 415.593 290.862C415.42 291.096 415.2 291.292 414.948 291.438C414.696 291.583 414.417 291.676 414.127 291.71C413.838 291.743 413.545 291.717 413.266 291.633C412.701 291.421 412.236 291.004 411.965 290.465C411.694 289.926 411.637 289.304 411.804 288.725Z" fill="#F79776"/>
<path d="M426.222 271.757L422.442 270.466C422.502 270.214 422.614 269.977 422.771 269.771C422.928 269.565 423.126 269.394 423.354 269.269C423.581 269.145 423.832 269.069 424.09 269.048C424.348 269.026 424.608 269.059 424.853 269.145C425.363 269.335 425.785 269.707 426.037 270.189C426.29 270.671 426.356 271.23 426.222 271.757Z" fill="#263238"/>
<path d="M395.195 276.936V282.519C395.553 282.534 395.911 282.476 396.246 282.347C396.58 282.219 396.885 282.024 397.142 281.773C397.398 281.523 397.6 281.222 397.736 280.891C397.872 280.559 397.939 280.203 397.932 279.844C397.938 279.101 397.656 278.384 397.146 277.842C396.637 277.301 395.938 276.976 395.195 276.936Z" fill="#0A6A56"/>
<path opacity="0.6" d="M395.195 276.936V282.519C395.553 282.534 395.911 282.476 396.246 282.347C396.58 282.219 396.885 282.024 397.142 281.773C397.398 281.523 397.6 281.222 397.736 280.891C397.872 280.559 397.939 280.203 397.932 279.844C397.938 279.101 397.656 278.384 397.146 277.842C396.637 277.301 395.938 276.976 395.195 276.936Z" fill="black"/>
<path d="M424.853 277.169C424.887 277.617 424.743 278.06 424.451 278.401C424.16 278.742 423.745 278.953 423.298 278.989C422.955 279.023 422.61 278.953 422.308 278.789C422.005 278.625 421.758 278.374 421.599 278.069C421.44 277.764 421.375 277.418 421.414 277.076C421.453 276.734 421.594 276.411 421.817 276.149C422.041 275.888 422.338 275.699 422.67 275.607C423.002 275.515 423.353 275.525 423.68 275.635C424.006 275.744 424.292 275.949 424.501 276.223C424.71 276.496 424.833 276.826 424.853 277.169Z" fill="#263238"/>
<path d="M415.989 274.914L415.958 285.739L420.997 284.074L415.989 274.914Z" fill="#F79776"/>
<path d="M411.214 297.947C407.123 297.418 398.772 294.945 397.388 291.493C397.914 293.225 398.949 294.758 400.358 295.894C402.878 298.118 411.245 300.56 411.245 300.56L411.214 297.947Z" fill="#F79776"/>
<path d="M361.447 360.264C361.447 360.264 371.431 374.448 373.142 376.298C374.853 378.149 376.035 377.527 377.885 376.703C380.142 375.791 382.46 375.038 384.822 374.448C387.932 373.686 388.523 376.501 385.506 378.507C383.329 379.969 380.84 380.591 381.867 381.788C383.995 383.715 386.463 385.229 389.145 386.252C396.517 389.16 395.941 390.622 394.588 393.001C393.406 395.085 389.923 399.564 376.797 394.277C371.353 392.084 363.702 385.879 360.094 381.835C354.884 376.065 346.75 365.723 346.75 365.723L361.447 360.264Z" fill="#FFBDA7"/>
<path d="M382.505 306.874C378.897 307.107 372.1 307.978 363.578 322.131C356.097 334.572 344.511 351.384 342.365 357.403C341.494 359.844 344.884 364.899 349.254 370.078C355.211 369.813 360.638 365.692 363.453 362.395C362.715 360.641 361.798 358.968 360.716 357.403L378.197 337.465C378.197 337.465 384.838 331.384 386.222 323.468C387.715 314.883 387.248 308.134 382.505 306.874Z" fill="#455A64"/>
<path d="M480.374 333.717L437.279 345.07L425.413 393.826L466.393 381.928L480.374 333.717Z" fill="#0A6A56"/>
<path opacity="0.25" d="M480.374 333.717L437.279 345.07L425.413 393.826L466.393 381.928L480.374 333.717Z" fill="black"/>
<g opacity="0.1">
<path d="M460.902 368.243C461.624 369.748 462.773 371.008 464.205 371.865C465.638 372.723 467.291 373.14 468.958 373.064L469.269 371.991L460.902 368.243Z" fill="black"/>
</g>
<g opacity="0.1">
<path d="M467.389 341.462L467.746 339.814C467.948 338.912 465.413 338.865 462.101 339.814L455.74 341.369C452.427 342.24 449.519 343.671 449.379 344.573L449.037 346.221L467.389 341.462Z" fill="black"/>
</g>
<path d="M470.7 335.288C470.825 334.712 469.798 334.557 468.414 334.945L465.895 335.645C465.895 335.645 466.641 332.084 461.074 333.328C459.579 333.548 458.167 334.151 456.973 335.077C455.78 336.003 454.846 337.222 454.262 338.616L451.587 339.378C450.032 339.798 448.756 340.591 448.585 341.151L448.259 342.177L470.467 336.33L470.7 335.288Z" fill="#37474F"/>
<path d="M467.636 337.03C465.615 337.527 464.759 337.792 464.526 339.191C464.293 340.591 464.028 341.96 464.028 341.96L454.215 344.557C454.215 344.557 454.697 342.535 454.852 341.757C455.008 340.98 454.666 340.482 453.095 340.902L452.971 340.28L468.367 336.345L467.636 337.03Z" fill="#37474F"/>
<path d="M467.979 341.602L468.337 339.953C468.539 339.051 466.004 339.005 462.692 339.953L456.331 341.508C453.018 342.379 450.11 343.81 449.97 344.712L449.628 346.361L467.979 341.602Z" fill="#37474F"/>
<path d="M475.833 349.378C475.833 349.378 474.278 354.899 473.858 356.205C473.438 357.512 468.648 359.891 465.491 360.762C462.334 361.633 458.85 362.659 460.359 367.092C461.728 371.182 466.953 372.115 469.597 371.991C472.241 371.866 475.896 369.347 477.373 365.257C479.193 360.031 478.213 354.463 478.928 351.415C479.644 348.367 477.42 347.558 475.833 349.378Z" fill="#FFBDA7"/>
<path d="M312.582 350.669C306.673 344.712 304.558 347.03 303.811 353.562C303.535 356.301 302.87 358.988 301.836 361.54C301.652 360.183 301.281 358.859 300.732 357.605C300.472 356.927 299.965 356.372 299.313 356.052C298.661 355.732 297.913 355.67 297.217 355.879C296.642 356.112 297.357 357.434 297.217 360.031C297.108 363.266 296.051 365.055 296.813 368.492C297.078 369.785 296.874 371.13 296.237 372.286C293.127 378.196 282.878 389.114 275.693 396.983L248.399 372.333C239.068 363.935 236.051 360.156 227.046 360.762C229.863 361.831 232.458 363.413 234.698 365.428C238.881 368.958 237.886 389.16 237.886 389.16C237.886 389.16 268.865 411.369 272.1 413.484C272.567 413.795 273.049 414.075 273.516 414.339C275.045 415.136 276.799 415.393 278.492 415.069C280.186 414.744 281.721 413.857 282.847 412.551C289.456 404.992 299.099 390.109 304.62 382.38C307.144 378.638 309.395 374.719 311.354 370.653C316.89 359.658 316.284 354.401 312.582 350.669Z" fill="#914F4E"/>
<path d="M228.011 360.264C230.186 359.869 232.422 359.941 234.567 360.478C236.713 361.014 238.719 362.002 240.452 363.375C245.771 367.418 268.446 388.258 268.446 388.258C268.446 388.258 269.068 399.285 257.56 405.848L229.768 386.252L228.011 360.264Z" fill="#0A6A56"/>
<path opacity="0.3" d="M228.011 360.264C230.186 359.869 232.422 359.941 234.567 360.478C236.713 361.014 238.719 362.002 240.452 363.375C245.771 367.418 268.446 388.258 268.446 388.258C268.446 388.258 269.068 399.285 257.56 405.848L229.768 386.252L228.011 360.264Z" fill="black"/>
<path d="M201.183 609.036H189.41V630.031H201.183V609.036Z" fill="#914F4E"/>
<path d="M230.234 607.916L242.007 608.336L242.598 586.112L230.234 585.692V607.916Z" fill="#914F4E"/>
<path d="M187.746 427.247C187.746 438.958 189.472 533.219 189.472 533.219C189.208 536.579 186.175 542.799 186.828 555.739C187.715 573.328 188.912 619.502 188.912 619.502C190.934 620.538 193.166 621.1 195.437 621.146C197.708 621.192 199.96 620.72 202.023 619.767C202.023 619.767 213.158 555.77 215.273 538.352C217.108 523.142 220.234 471.944 220.234 471.944L226.611 531.477C225.252 537.878 224.76 544.432 225.149 550.964C225.709 559.02 229.488 600.995 229.488 600.995C231.524 602.2 233.808 602.924 236.166 603.113C238.524 603.301 240.894 602.949 243.096 602.084C243.096 602.084 249.783 538.865 249.923 531.477C250.079 523.048 246.004 427.092 246.004 427.092L187.746 427.247Z" fill="#37474F"/>
<path d="M201.183 623.966V622.224C202.318 622.737 204.931 633.11 209.596 637.574C213.313 641.104 218.383 645.179 219.674 649.114C220.965 653.048 212.613 655.459 209.145 654.821C205.117 654.075 198.119 651.12 196.377 648.383C194.635 645.645 193.795 641.586 192.365 639.58C190.934 637.574 187.699 635.334 186.89 633.002C186.659 630.832 186.887 628.639 187.559 626.563C188.103 624.401 188.694 622.022 189.41 622.224V623.561C191.071 624.921 193.157 625.654 195.304 625.63C197.015 625.692 201.198 625.334 201.183 623.966Z" fill="#263238"/>
<path d="M242.132 604.557C242.738 604.557 243.236 605.474 244.589 606.998C246.589 609.101 248.928 610.852 251.51 612.177C255.927 614.479 264.496 618.025 268.384 619.845C270.81 620.98 270.686 624.028 268.182 625.754C265.678 627.481 259.628 628.74 252.365 627.061C248.415 626.128 243.252 622.395 239.924 622.535C236.595 622.675 230.592 622.691 228.151 620.98C225.709 619.269 226.704 615.552 227.389 612.395C228.135 608.927 229.068 603.53 230.157 603.764V604.961C231.572 607.201 238.882 608.072 241.992 606.516L242.132 604.557Z" fill="#263238"/>
<path d="M220.233 471.975C226.36 469.974 231.962 466.627 236.625 462.177C236.625 462.177 233.515 468.398 224.059 474.09L226.065 527.263L220.233 471.975Z" fill="#263238"/>
<path d="M193.873 363.375C193.873 363.375 184.666 364.215 185.319 381.773L187.357 409.767L187.17 451.757C195.817 461.571 234.215 460.855 247.357 450.964C247.357 450.964 246.004 401.306 245.117 382.193C244.479 368.616 241.354 361.773 228.01 360.28L211.587 360.995L193.873 363.375Z" fill="#0A6A56"/>
<path opacity="0.3" d="M220.048 372.582L222.163 387.325L227.093 387.232L221.525 388.103L220.048 372.582Z" fill="black"/>
<path d="M164.651 423.655C169.425 385.241 180.421 366.112 193.811 363.904L192.862 388.476C187.287 401.581 183.015 415.203 180.11 429.145C178.352 438.6 176.315 455.039 176.844 463.11C176.949 464.533 177.555 465.872 178.554 466.89C181.198 469.58 181.991 471.913 183.764 474.946C185.164 477.325 186.595 478.165 186.222 478.74C185.741 479.345 185.043 479.739 184.276 479.838C183.509 479.936 182.734 479.732 182.116 479.269C180.712 478.275 179.429 477.121 178.29 475.832C178.12 479.493 178.779 483.146 180.218 486.516C183.329 492.986 182.831 496.392 174.153 494.479C168.71 493.297 164.822 487.558 163.267 474.168C162.858 469.171 162.769 464.153 163.002 459.145C163.593 446.345 163.702 431.337 164.651 423.655Z" fill="#914F4E"/>
<path d="M194.572 363.266C187.62 363.266 181.275 364.464 176.221 374.152C171.384 383.484 167.667 403.219 165.785 409.673C165.785 409.673 175.941 415.677 185.287 415.521L191.866 392.691C191.866 392.691 196.314 382.037 194.572 363.266Z" fill="#0A6A56"/>
<path opacity="0.3" d="M194.572 363.266C187.62 363.266 181.275 364.464 176.221 374.152C171.384 383.484 167.667 403.219 165.785 409.673C165.785 409.673 175.941 415.677 185.287 415.521L191.866 392.691C191.866 392.691 196.314 382.037 194.572 363.266Z" fill="black"/>
<path d="M208.927 323.733C209.067 327.169 210.214 330.488 212.226 333.278C214.237 336.067 217.024 338.204 220.241 339.422C223.457 340.641 226.96 340.887 230.315 340.13C233.67 339.373 236.728 337.647 239.11 335.166C241.492 332.685 243.092 329.558 243.711 326.175C244.33 322.792 243.941 319.302 242.593 316.138C241.244 312.974 238.995 310.277 236.126 308.381C233.257 306.485 229.893 305.474 226.454 305.474C221.71 305.576 217.201 307.556 213.915 310.979C210.629 314.402 208.835 318.989 208.927 323.733Z" fill="#263238"/>
<path d="M197.776 332.862C197.776 332.862 200.467 346.019 201.54 348.18C202.24 349.504 203.428 350.503 204.853 350.964L204.65 341.633L197.776 332.862Z" fill="#263238"/>
<path d="M201.152 314.012C201.152 314.012 199.161 313.608 197.17 316.719C195.413 319.456 195.024 325.614 197.777 332.846L202.831 333.453L201.152 314.012Z" fill="#263238"/>
<path d="M204.356 333.468C203.345 334.106 201.899 332.069 200.639 330.716C199.379 329.363 195.305 327.481 193.267 331.96C191.23 336.439 195.056 342.551 198.275 343.593C203.827 345.412 204.651 341.695 204.651 341.695L205.087 362.551C212.443 373.935 229.13 373.53 223.127 361.991V355.599C225.598 356.01 228.107 356.145 230.608 356.003C234.682 355.35 237.249 351.991 238.493 347.387C240.483 340 241.23 334.044 239.55 319.518C237.7 303.593 219.924 303.422 210.312 309.72C200.701 316.019 204.356 333.468 204.356 333.468Z" fill="#914F4E"/>
<path d="M204.993 357.869C206.704 361.371 209.162 364.455 212.193 366.905C214.772 368.807 217.76 370.079 220.918 370.622C218.315 372.385 216.18 374.755 214.697 377.527C212.862 381.586 199.892 370.435 200.016 362.519C200.016 362.519 202.053 354.572 204.837 354.059L204.993 357.869Z" fill="#263238"/>
<path d="M220.934 370.622C220.934 370.622 224.931 368.632 223.142 361.991V355.599L224.9 355.832C226.948 357.828 228.402 360.353 229.099 363.126C229.503 364.946 230.499 374.153 228.741 375.972C226.984 377.792 224.511 371.151 220.934 370.622Z" fill="#263238"/>
<path d="M204.355 335.257C203.842 335.257 201.898 331.913 200.638 330.716C198.88 329.051 201.151 314.013 201.151 314.013C200.693 312.715 200.608 311.314 200.905 309.97C201.201 308.626 201.869 307.392 202.831 306.408C205.241 303.655 209.254 303.297 216.097 302.24C218.829 301.904 221.539 301.41 224.215 300.762C227.04 299.705 229.758 298.382 232.333 296.812C233.143 296.287 234.113 296.066 235.07 296.19C235.512 296.339 235.907 296.601 236.215 296.95C236.524 297.3 236.735 297.724 236.828 298.181C236.983 299.091 236.983 300.022 236.828 300.933C237.693 300.129 238.841 299.7 240.022 299.741C241.202 299.781 242.319 300.289 243.126 301.151C243.89 302.061 244.387 303.164 244.563 304.339C244.738 305.513 244.586 306.714 244.121 307.807C243.128 309.983 241.502 311.809 239.456 313.048C230.856 318.865 220.7 317.247 211.058 316.159C210.602 316.057 210.127 316.089 209.689 316.252C208.134 316.936 207.854 321.618 207.59 322.971C206.812 327.481 206.065 335.226 204.355 335.257Z" fill="#263238"/>
<path d="M201.151 314.806L195.024 311.369C195.21 310.944 195.483 310.563 195.825 310.251C196.167 309.938 196.571 309.701 197.011 309.554C197.451 309.408 197.916 309.355 198.378 309.4C198.839 309.444 199.286 309.585 199.69 309.813C200.504 310.32 201.104 311.11 201.373 312.031C201.643 312.951 201.564 313.939 201.151 314.806Z" fill="#263238"/>
<path d="M223.111 355.599C223.111 355.599 214.013 353.686 210.825 351.929C208.933 350.894 207.398 349.311 206.424 347.387C206.898 349.318 207.749 351.136 208.928 352.737C211.245 355.848 223.111 358.134 223.111 358.134V355.599Z" fill="#783736"/>
<path d="M219.815 330.56C219.825 330.809 219.786 331.058 219.7 331.292C219.615 331.526 219.483 331.741 219.314 331.925C219.145 332.108 218.942 332.257 218.715 332.361C218.489 332.466 218.244 332.525 217.995 332.535C217.492 332.507 217.019 332.283 216.679 331.911C216.339 331.539 216.158 331.048 216.175 330.544C216.175 330.062 216.367 329.599 216.708 329.258C217.05 328.916 217.512 328.725 217.995 328.725C218.478 328.725 218.94 328.916 219.282 329.258C219.623 329.599 219.815 330.062 219.815 330.544V330.56Z" fill="#263238"/>
<path d="M216.688 322.659L212.784 324.899C212.503 324.344 212.44 323.705 212.607 323.106C212.774 322.508 213.159 321.993 213.686 321.664C213.946 321.519 214.233 321.43 214.529 321.403C214.825 321.375 215.123 321.409 215.406 321.502C215.688 321.596 215.947 321.747 216.168 321.946C216.389 322.145 216.566 322.388 216.688 322.659Z" fill="#263238"/>
<path d="M222.287 344.23L226.455 345.863C226.373 346.15 226.232 346.416 226.043 346.645C225.853 346.875 225.618 347.062 225.352 347.197C225.086 347.331 224.795 347.409 224.498 347.426C224.201 347.443 223.903 347.398 223.624 347.294C223.056 347.046 222.602 346.593 222.354 346.025C222.106 345.457 222.082 344.816 222.287 344.23Z" fill="#783736"/>
<path d="M238.041 324.837L233.935 322.846C234.036 322.568 234.194 322.314 234.4 322.101C234.605 321.889 234.853 321.722 235.128 321.612C235.402 321.501 235.697 321.451 235.993 321.462C236.289 321.474 236.578 321.548 236.843 321.68C237.398 321.964 237.828 322.445 238.049 323.028C238.27 323.611 238.267 324.256 238.041 324.837Z" fill="#263238"/>
<path d="M235.351 330.56C235.374 330.814 235.345 331.07 235.264 331.312C235.182 331.554 235.052 331.777 234.88 331.965C234.708 332.154 234.498 332.304 234.265 332.408C234.031 332.511 233.779 332.564 233.524 332.564C233.268 332.564 233.016 332.511 232.782 332.408C232.549 332.304 232.34 332.154 232.168 331.965C231.996 331.777 231.865 331.554 231.784 331.312C231.703 331.07 231.673 330.814 231.696 330.56C231.686 330.311 231.725 330.063 231.811 329.83C231.897 329.597 232.028 329.383 232.197 329.201C232.367 329.018 232.57 328.872 232.797 328.769C233.023 328.666 233.267 328.608 233.516 328.6C234.018 328.621 234.492 328.837 234.835 329.204C235.178 329.571 235.364 330.058 235.351 330.56Z" fill="#263238"/>
<path d="M225.008 329.145L225.21 340.669L231.758 339.176L225.008 329.145Z" fill="#783736"/>
<path d="M216.999 325.801C215.79 325.801 214.631 326.281 213.777 327.136C212.922 327.99 212.442 329.149 212.442 330.358C212.442 331.566 212.922 332.725 213.777 333.58C214.631 334.434 215.79 334.915 216.999 334.915H217.823C219.032 334.915 220.191 334.434 221.045 333.58C221.9 332.725 222.38 331.566 222.38 330.358C222.38 329.149 221.9 327.99 221.045 327.136C220.191 326.281 219.032 325.801 217.823 325.801H216.999ZM211.602 330.358C211.59 328.917 212.149 327.53 213.158 326.501C214.167 325.471 215.542 324.884 216.983 324.868H217.823C219.144 325.041 220.357 325.689 221.236 326.691C222.114 327.692 222.599 328.979 222.599 330.311C222.599 331.643 222.114 332.93 221.236 333.932C220.357 334.933 219.144 335.581 217.823 335.754H216.999C215.57 335.746 214.202 335.175 213.192 334.165C212.182 333.154 211.61 331.787 211.602 330.358Z" fill="#263238"/>
<path d="M233.375 325.801C232.166 325.801 231.007 326.281 230.153 327.136C229.298 327.99 228.818 329.149 228.818 330.358C228.818 331.566 229.298 332.725 230.153 333.58C231.007 334.434 232.166 334.914 233.375 334.914H234.199C235.408 334.914 236.567 334.434 237.421 333.58C238.276 332.725 238.756 331.566 238.756 330.358C238.756 329.149 238.276 327.99 237.421 327.136C236.567 326.281 235.408 325.801 234.199 325.801H233.375ZM227.994 330.358C227.981 328.917 228.541 327.53 229.55 326.5C230.558 325.471 231.934 324.884 233.375 324.868H234.199C235.52 325.041 236.733 325.689 237.612 326.69C238.49 327.692 238.975 328.979 238.975 330.311C238.975 331.643 238.49 332.93 237.612 333.932C236.733 334.933 235.52 335.581 234.199 335.754H233.375C231.954 335.734 230.598 335.157 229.598 334.148C228.598 333.139 228.033 331.778 228.025 330.358H227.994Z" fill="#263238"/>
<path d="M223.142 329.269C223.468 328.818 223.895 328.449 224.389 328.192C224.883 327.935 225.431 327.798 225.988 327.792C226.447 327.742 226.912 327.804 227.342 327.972C227.773 328.139 228.156 328.408 228.461 328.756L229.192 328.196C228.803 327.722 228.302 327.352 227.735 327.121C227.167 326.891 226.55 326.806 225.941 326.874C225.235 326.881 224.541 327.059 223.918 327.392C223.296 327.725 222.762 328.204 222.364 328.787L223.142 329.269Z" fill="#263238"/>
<path d="M212.101 329.222H202.832V330.14H212.101V329.222Z" fill="#263238"/>
</svg>
