<svg width="72" height="73" viewBox="0 0 72 73" fill="none" xmlns="http://www.w3.org/2000/svg">
<rect y="0.424438" width="72" height="72" rx="36" fill="#F4F5F7"/>
<path d="M47.6 25.6244C47.4 25.4244 47 25.4244 46.7 25.4244L41 27.1244V47.2244L47.3 45.4244C47.7 45.3244 48 44.9244 48 44.4244V26.4244C48 26.1244 47.9 25.8244 47.6 25.6244Z" fill="#D6B1FF"/>
<path d="M39 27.1244L33 25.6244V45.7244L39 47.2244V27.1244Z" fill="#2EC5CE"/>
<path d="M31 25.6244L24.7 27.4244C24.3 27.6244 24 28.0244 24 28.4244V46.4244C24 46.7244 24.1 47.0244 24.4 47.2244C24.6 47.3244 24.8 47.4244 25 47.4244H25.3L31 45.7244V25.6244Z" fill="#8C30F5"/>
</svg>
