<svg width="72"
     height="73"
     viewBox="0 0 72 73"
     fill="none"
     xmlns="http://www.w3.org/2000/svg">
    <rect y="0.518555"
          width="72"
          height="72"
          rx="36"
          fill="#ecfdf6" />
    <g clip-path="url(#clip0_245_1745)">
        <path d="M45 48.5186H36C35.7348 48.5186 35.4804 48.4132 35.2929 48.2257C35.1054 48.0381 35 47.7838 35 47.5186V45.5186C35 45.2533 35.1054 44.999 35.2929 44.8114C35.4804 44.6239 35.7348 44.5186 36 44.5186H45C45.2652 44.5186 45.5196 44.6239 45.7071 44.8114C45.8946 44.999 46 45.2533 46 45.5186V47.5186C46 47.7838 45.8946 48.0381 45.7071 48.2257C45.5196 48.4132 45.2652 48.5186 45 48.5186Z"
              fill="#70e5c0" />
        <path d="M45 24.5186H27C26.7348 24.5186 26.4804 24.6239 26.2929 24.8114C26.1054 24.999 26 25.2533 26 25.5186V27.5186C26 27.7838 26.1054 28.0381 26.2929 28.2257C26.4804 28.4132 26.7348 28.5186 27 28.5186H45C45.2652 28.5186 45.5196 28.4132 45.7071 28.2257C45.8946 28.0381 46 27.7838 46 27.5186V25.5186C46 25.2533 45.8946 24.999 45.7071 24.8114C45.5196 24.6239 45.2652 24.5186 45 24.5186Z"
              fill="#37d0a4" />
        <path d="M45 30.5186H27C26.7348 30.5186 26.4804 30.6239 26.2929 30.8114C26.1054 30.999 26 31.2533 26 31.5186V41.5186C26 41.7838 26.1054 42.0381 26.2929 42.2257C26.4804 42.4132 26.7348 42.5186 27 42.5186H45C45.2652 42.5186 45.5196 42.4132 45.7071 42.2257C45.8946 42.0381 46 41.7838 46 41.5186V31.5186C46 31.2533 45.8946 30.999 45.7071 30.8114C45.5196 30.6239 45.2652 30.5186 45 30.5186Z"
              fill="#089373" />
    </g>
    <defs>
        <clipPath id="clip0_245_1745">
            <rect width="24"
                  height="24"
                  fill="white"
                  transform="translate(24 24.5186)" />
        </clipPath>
    </defs>
</svg>