<svg width="72"
     height="73"
     viewBox="0 0 72 73"
     fill="none"
     xmlns="http://www.w3.org/2000/svg">
    <rect y="0.518555"
          width="72"
          height="72"
          rx="36"
          fill="#ecfdf6" />
    <g clip-path="url(#clip0_245_2180)">
        <path d="M42 34.5186H48L45 30.5186L42 34.5186ZM42 38.5186H48L45 42.5186L42 38.5186Z"
              fill="#089373" />
        <path d="M25 24.5186H31V48.5186H25C24.7348 48.5186 24.4804 48.4132 24.2929 48.2257C24.1054 48.0381 24 47.7838 24 47.5186V25.5186C24 25.2533 24.1054 24.999 24.2929 24.8114C24.4804 24.6239 24.7348 24.5186 25 24.5186Z"
              fill="#37d0a4" />
        <path d="M33 24.5186H39C39.2652 24.5186 39.5196 24.6239 39.7071 24.8114C39.8946 24.999 40 25.2533 40 25.5186V47.5186C40 47.7838 39.8946 48.0381 39.7071 48.2257C39.5196 48.4132 39.2652 48.5186 39 48.5186H33V24.5186Z"
              fill="#70e5c0" />
    </g>
    <defs>
        <clipPath id="clip0_245_2180">
            <rect width="24"
                  height="24"
                  fill="white"
                  transform="translate(24 24.5186)" />
        </clipPath>
    </defs>
</svg>