<svg width="72"
     height="73"
     viewBox="0 0 72 73"
     fill="none"
     xmlns="http://www.w3.org/2000/svg">
    <rect y="0.424438"
          width="72"
          height="72"
          rx="36"
          fill="#ecfdf6" />
    <path d="M33 34.4244H26C25.7348 34.4244 25.4804 34.3191 25.2929 34.1315C25.1054 33.944 25 33.6897 25 33.4244V26.4244C25 26.1592 25.1054 25.9049 25.2929 25.7173C25.4804 25.5298 25.7348 25.4244 26 25.4244H33C33.2652 25.4244 33.5196 25.5298 33.7071 25.7173C33.8946 25.9049 34 26.1592 34 26.4244V33.4244C34 33.6897 33.8946 33.944 33.7071 34.1315C33.5196 34.3191 33.2652 34.4244 33 34.4244Z"
          fill="#089373" />
    <path d="M33 47.4244H26C25.7348 47.4244 25.4804 47.3191 25.2929 47.1315C25.1054 46.944 25 46.6897 25 46.4244V39.4244C25 39.1592 25.1054 38.9049 25.2929 38.7173C25.4804 38.5298 25.7348 38.4244 26 38.4244H33C33.2652 38.4244 33.5196 38.5298 33.7071 38.7173C33.8946 38.9049 34 39.1592 34 39.4244V46.4244C34 46.6897 33.8946 46.944 33.7071 47.1315C33.5196 47.3191 33.2652 47.4244 33 47.4244Z"
          fill="#089373" />
    <path d="M37 26.4244H47V28.4244H37V26.4244Z"
          fill="#37d0a4" />
    <path d="M47 39.4244H37V41.4244H47V39.4244Z"
          fill="#37d0a4" />
    <path d="M47 44.4244H37V46.4244H47V44.4244Z"
          fill="#70e5c0" />
    <path d="M47 31.4244H37V33.4244H47V31.4244Z"
          fill="#70e5c0" />
</svg>