<svg width="56"
     height="57"
     viewBox="0 0 56 57"
     fill="none"
     xmlns="http://www.w3.org/2000/svg">
    <g clip-path="url(#clip0_239_2188)">
        <path d="M36 25.785H44L40 20.4517L36 25.785ZM36 31.1183H44L40 36.4517L36 31.1183Z"
              fill="#032b25" />
        <path d="M13.3333 12.4517H21.3333V44.4517H13.3333C12.9797 44.4517 12.6406 44.3112 12.3905 44.0611C12.1405 43.8111 12 43.472 12 43.1183V13.785C12 13.4314 12.1405 13.0922 12.3905 12.8422C12.6406 12.5921 12.9797 12.4517 13.3333 12.4517Z"
              fill="#032b25" />
        <path d="M24 12.4517H32C32.3536 12.4517 32.6928 12.5921 32.9428 12.8422C33.1929 13.0922 33.3333 13.4314 33.3333 13.785V43.1183C33.3333 43.472 33.1929 43.8111 32.9428 44.0611C32.6928 44.3112 32.3536 44.4517 32 44.4517H24V12.4517Z"
              fill="#37d0a4" />
    </g>
    <defs>
        <clipPath id="clip0_239_2188">
            <rect width="32"
                  height="32"
                  fill="#ecfdf6"
                  transform="translate(12 12.4517)" />
        </clipPath>
    </defs>
</svg>