<?xml version="1.0" encoding="UTF-8"?>
<!-- Generator: visioncortex VTracer 0.6.3 -->
<svg version="1.1" xmlns="http://www.w3.org/2000/svg" width="1280" height="548">
<path d="M0 0 C422.4 0 844.8 0 1280 0 C1280 180.84 1280 361.68 1280 548 C857.6 548 435.2 548 0 548 C0 367.16 0 186.32 0 0 Z " fill="#FAFCFC" transform="translate(0,0)"/>
<path d="M0 0 C1.23 -0 1.23 -0 2.48 -0.01 C5.2 -0.01 7.93 -0.01 10.66 -0.01 C12.63 -0.01 14.61 -0.01 16.59 -0.01 C22.02 -0.02 27.45 -0.02 32.88 -0.02 C38.74 -0.02 44.6 -0.02 50.46 -0.03 C61.93 -0.04 73.4 -0.04 84.88 -0.04 C94.2 -0.04 103.52 -0.04 112.84 -0.04 C115.53 -0.05 118.21 -0.05 120.9 -0.05 C121.57 -0.05 122.23 -0.05 122.92 -0.05 C141.69 -0.05 160.45 -0.06 179.22 -0.06 C179.93 -0.06 180.63 -0.06 181.36 -0.06 C184.95 -0.06 188.53 -0.06 192.11 -0.06 C192.83 -0.06 193.54 -0.06 194.27 -0.06 C195.71 -0.06 197.15 -0.06 198.59 -0.06 C221 -0.06 243.41 -0.06 265.82 -0.08 C291 -0.09 316.18 -0.1 341.36 -0.1 C344.05 -0.1 346.73 -0.1 349.41 -0.1 C350.41 -0.1 350.41 -0.1 351.42 -0.1 C361.4 -0.1 371.38 -0.11 381.36 -0.11 C392.71 -0.12 404.05 -0.12 415.4 -0.12 C421.19 -0.11 426.98 -0.11 432.77 -0.12 C438.07 -0.13 443.37 -0.13 448.66 -0.12 C450.58 -0.12 452.5 -0.12 454.42 -0.13 C457.03 -0.13 459.63 -0.13 462.23 -0.12 C463.36 -0.13 463.36 -0.13 464.51 -0.14 C471.65 -0.09 476.81 1.73 482.43 6.13 C488.04 13.34 490.36 20.09 489.43 29.13 C488.43 32.25 488.43 32.25 487.43 34.13 C486.77 34.13 486.11 34.13 485.43 34.13 C485.76 35.45 486.09 36.77 486.43 38.13 C484.94 38.62 484.94 38.62 483.43 39.13 C483.35 39.99 483.26 40.86 483.18 41.75 C482.31 45.66 480.94 48.03 478.43 51.13 C477.44 51.13 476.45 51.13 475.43 51.13 C474.32 53.72 473.45 56.02 472.99 58.82 C472.43 61.13 472.43 61.13 469.43 63.13 C469.76 63.79 470.09 64.45 470.43 65.13 C469.18 67.69 469.18 67.69 467.43 70.13 C465.94 70.62 465.94 70.62 464.43 71.13 C462.72 74.13 462.72 74.13 461.43 77.13 C460.77 77.13 460.11 77.13 459.43 77.13 C459.1 78.78 458.77 80.43 458.43 82.13 C457.77 82.13 457.11 82.13 456.43 82.13 C456.2 83.14 455.97 84.15 455.74 85.19 C454.7 88.91 452.92 91.54 450.55 94.55 C449.23 96.25 449.23 96.25 448.43 99.13 C447.77 99.13 447.11 99.13 446.43 99.13 C446.34 99.84 446.25 100.55 446.16 101.28 C445.28 104.71 443.79 106.86 441.74 109.75 C434.37 120.18 434.37 120.18 430.43 132.13 C429.44 132.46 428.45 132.79 427.43 133.13 C426.08 134.99 426.08 134.99 424.91 137.32 C424.44 138.18 423.98 139.05 423.5 139.94 C422.78 141.3 422.78 141.3 422.05 142.69 C418.71 148.98 415.28 155.13 411.43 161.13 C412.75 159.15 414.07 157.17 415.43 155.13 C416.09 155.46 416.75 155.79 417.43 156.13 C415.17 159.6 412.85 163.02 410.43 166.38 C409.72 167.38 409.72 167.38 408.99 168.39 C407.27 170.31 405.72 171.01 403.43 172.13 C401.83 173.7 401.83 173.7 400.43 175.5 C398.21 178.19 395.94 180.71 393.43 183.13 C392.77 183.79 392.11 184.45 391.43 185.13 C379.15 193.8 366.13 200.46 350.9 200.39 C350.08 200.4 349.25 200.4 348.4 200.41 C345.64 200.42 342.89 200.42 340.13 200.42 C338.13 200.42 336.13 200.43 334.13 200.44 C328.64 200.45 323.15 200.46 317.66 200.46 C311.73 200.47 305.81 200.49 299.89 200.5 C286.27 200.53 272.64 200.55 259.02 200.56 C252.28 200.57 245.55 200.58 238.82 200.59 C215.75 200.62 192.69 200.64 169.63 200.66 C168.19 200.66 166.74 200.66 165.29 200.66 C164.22 200.66 164.22 200.66 163.12 200.66 C159.48 200.66 155.85 200.66 152.21 200.66 C151.49 200.66 150.77 200.66 150.03 200.67 C126.64 200.68 103.24 200.72 79.85 200.77 C55.11 200.83 30.36 200.86 5.62 200.87 C2.9 200.87 0.19 200.87 -2.53 200.87 C-3.53 200.87 -3.53 200.87 -4.56 200.87 C-14.65 200.87 -24.74 200.9 -34.83 200.93 C-46.31 200.97 -57.79 200.98 -69.27 200.96 C-75.13 200.95 -80.98 200.96 -86.84 200.99 C-92.2 201.02 -97.57 201.02 -102.93 200.99 C-104.87 200.99 -106.81 200.99 -108.75 201.01 C-119.64 201.12 -128.1 200.97 -136.57 193.13 C-138.92 190.07 -138.92 190.07 -140.2 187.25 C-140.87 185.83 -140.87 185.83 -141.55 184.39 C-141.89 183.64 -142.22 182.9 -142.57 182.13 C-142.9 181.8 -143.23 181.47 -143.57 181.13 C-144.59 169.71 -137.83 160.89 -132.13 151.44 C-131.42 150.24 -130.7 149.04 -129.98 147.84 C-128.54 145.42 -127.09 143 -125.64 140.58 C-122.7 135.67 -119.79 130.74 -116.88 125.82 C-115.83 124.04 -114.79 122.26 -113.74 120.49 C-111.54 116.77 -109.35 113.05 -107.16 109.33 C-101.9 100.4 -96.63 91.49 -91.16 82.69 C-89.6 80.18 -88.08 77.66 -86.57 75.13 C-87.56 74.14 -87.56 74.14 -88.57 73.13 C-87.91 73.13 -87.25 73.13 -86.57 73.13 C-86.47 72.42 -86.37 71.72 -86.27 71 C-85.45 67.64 -84.13 65.23 -82.38 62.25 C-82.05 61.67 -81.71 61.09 -81.36 60.5 C-80.1 58.37 -78.84 56.25 -77.57 54.13 C-77.02 53.2 -76.47 52.27 -75.9 51.31 C-74.07 48.22 -72.23 45.14 -70.38 42.07 C-69.79 41.07 -69.2 40.07 -68.58 39.04 C-65.64 34.17 -62.89 29.91 -58.57 26.13 C-57.89 25.52 -57.21 24.91 -56.51 24.28 C-55.55 23.47 -55.55 23.47 -54.57 22.63 C-52.21 20.59 -50.05 18.58 -47.88 16.32 C-45.51 14.07 -43.66 13.1 -40.57 12.13 C-40.57 11.47 -40.57 10.81 -40.57 10.13 C-27.24 2.94 -15.05 -0.04 0 0 Z " fill="#00660C" transform="translate(657.5713911056519,164.87136554718018)"/>
<path d="M0 0 C1.16 -0 2.32 -0 3.52 -0 C4.74 -0 5.96 0 7.22 0.01 C8.44 0 9.66 0 10.92 -0 C12.66 -0 12.66 -0 14.44 0 C15.51 0 16.58 0 17.69 0 C20.29 0.13 20.29 0.13 22.29 1.13 C22.29 42.38 22.29 83.63 22.29 126.13 C13.38 126.13 4.47 126.13 -4.71 126.13 C-8.71 121.13 -8.71 121.13 -8.71 119.13 C-9.28 119.46 -9.85 119.79 -10.44 120.12 C-11.6 120.78 -11.6 120.78 -12.78 121.45 C-13.91 122.09 -13.91 122.09 -15.06 122.75 C-21.31 126.01 -26.1 127.64 -33.09 127.51 C-33.84 127.5 -34.59 127.49 -35.37 127.48 C-40.94 127.32 -45.69 126.68 -50.71 124.13 C-51.54 123.72 -52.37 123.31 -53.23 122.88 C-63.33 117.34 -70.02 109.08 -73.71 98.13 C-77.22 82.39 -76.16 66.94 -68.33 52.63 C-65.36 48.03 -61.96 44.15 -56.71 42.13 C-59.68 42.63 -59.68 42.63 -62.71 43.13 C-60.09 39.92 -57.05 38.92 -53.21 37.51 C-51.5 36.87 -51.5 36.87 -49.75 36.22 C-39.01 32.37 -25.44 32.43 -14.91 36.96 C-12.46 38.27 -10.09 39.7 -7.71 41.13 C-7.68 39.32 -7.68 39.32 -7.64 37.48 C-7.55 33.02 -7.44 28.56 -7.34 24.1 C-7.3 22.16 -7.26 20.23 -7.22 18.3 C-7.16 15.53 -7.1 12.75 -7.03 9.98 C-7.01 9.11 -7 8.24 -6.98 7.34 C-6.8 0.01 -6.8 0.01 0 0 Z " fill="#00660C" transform="translate(482.71484375,206.8671875)"/>
<path d="M0 0 C1.66 -0 1.66 -0 3.35 -0 C5.08 0.03 5.08 0.03 6.84 0.06 C8.57 0.05 8.57 0.05 10.34 0.04 C16.71 0.09 16.71 0.09 19.21 0.5 C21.62 4.12 21.51 6.78 21.51 10.97 C21.52 11.72 21.53 12.48 21.54 13.26 C21.57 15.77 21.58 18.27 21.59 20.78 C21.61 22.52 21.62 24.26 21.64 26 C21.69 30.58 21.72 35.16 21.75 39.74 C21.81 47.08 21.87 54.42 21.94 61.75 C21.96 64.32 21.98 66.89 22 69.45 C22.01 71.02 22.02 72.59 22.04 74.16 C22.04 74.87 22.04 75.59 22.05 76.33 C22.03 80.04 22.03 80.04 23.21 83.5 C23.87 82.18 24.53 80.86 25.21 79.5 C25.87 79.5 26.53 79.5 27.21 79.5 C27.21 78.84 27.21 78.18 27.21 77.5 C27.87 77.17 28.53 76.84 29.21 76.5 C29.21 75.84 29.21 75.18 29.21 74.5 C29.87 74.17 30.53 73.84 31.21 73.5 C31.21 72.84 31.21 72.18 31.21 71.5 C31.87 71.17 32.53 70.84 33.21 70.5 C33.21 69.84 33.21 69.18 33.21 68.5 C33.87 68.17 34.53 67.84 35.21 67.5 C35.21 66.84 35.21 66.18 35.21 65.5 C35.87 65.17 36.53 64.84 37.21 64.5 C37.21 63.84 37.21 63.18 37.21 62.5 C37.87 62.17 38.53 61.84 39.21 61.5 C39.21 60.84 39.21 60.18 39.21 59.5 C39.87 59.17 40.53 58.84 41.21 58.5 C41.21 57.84 41.21 57.18 41.21 56.5 C41.87 56.17 42.53 55.84 43.21 55.5 C43.21 54.84 43.21 54.18 43.21 53.5 C43.87 53.17 44.53 52.84 45.21 52.5 C45.21 51.84 45.21 51.18 45.21 50.5 C45.87 50.17 46.53 49.84 47.21 49.5 C47.9 47.38 47.9 47.38 48.34 44.93 C48.5 44.11 48.67 43.28 48.84 42.43 C49.03 41.47 49.03 41.47 49.21 40.5 C48.55 40.5 47.89 40.5 47.21 40.5 C46.94 39.98 46.67 39.45 46.39 38.92 C42.33 31.38 37.48 24.48 32.56 17.49 C29.2 12.65 26.07 8.12 24.21 2.5 C24.54 1.84 24.87 1.18 25.21 0.5 C29.39 0.35 33.57 0.24 37.75 0.17 C39.17 0.14 40.6 0.1 42.02 0.04 C53.76 -0.38 53.76 -0.38 57.17 1.68 C58.46 3.2 58.46 3.2 60.21 6.5 C60.81 7.38 61.4 8.26 62.01 9.16 C62.76 10.41 62.76 10.41 63.52 11.68 C64.04 12.52 64.55 13.36 65.07 14.23 C66.21 16.5 66.21 16.5 66.21 19.5 C69.22 20.43 70.08 20.54 73.21 19.5 C74.93 15.99 74.93 15.99 76.21 12.5 C76.87 12.5 77.53 12.5 78.21 12.5 C78.54 10.85 78.87 9.2 79.21 7.5 C80.53 7.5 81.85 7.5 83.21 7.5 C84.42 5.16 85.38 3 86.21 0.5 C95.12 0.5 104.03 0.5 113.21 0.5 C113.21 1.16 113.21 1.82 113.21 2.5 C114.2 2.99 114.2 2.99 115.21 3.5 C109.54 13.15 103.65 22.6 97.32 31.84 C96.57 32.96 95.84 34.1 95.14 35.26 C94.23 36.72 93.23 38.12 92.21 39.5 C91.22 39.5 90.23 39.5 89.21 39.5 C90.7 40.49 90.7 40.49 92.21 41.5 C92.01 42.08 91.8 42.67 91.59 43.27 C91.12 46.06 91.63 46.82 93.18 49.15 C93.63 49.84 94.09 50.54 94.55 51.26 C95.06 52 95.56 52.74 96.07 53.51 C96.83 54.66 96.83 54.66 97.61 55.84 C98.69 57.46 99.77 59.08 100.85 60.7 C102.52 63.18 104.17 65.67 105.81 68.16 C106.86 69.74 107.9 71.31 108.95 72.88 C109.69 74 109.69 74 110.45 75.15 C110.92 75.84 111.38 76.52 111.86 77.23 C112.26 77.84 112.67 78.45 113.09 79.07 C114.17 80.65 114.17 80.65 116.21 81.5 C115.88 83.15 115.55 84.8 115.21 86.5 C105.64 86.5 96.07 86.5 86.21 86.5 C80.96 76.81 80.96 76.81 79.33 73.78 C76.92 69.37 74.56 65.28 71.21 61.5 C67.65 62.94 66.09 64.65 63.96 67.81 C63.36 68.66 62.75 69.5 62.13 70.38 C60.09 73.42 60.09 73.42 59.15 76.87 C57.54 81.12 56.18 84.09 52.21 86.5 C43.18 88.67 33.53 87.78 24.31 87.39 C20.81 87.26 17.3 87.2 13.79 87.13 C6.93 86.99 0.07 86.77 -6.79 86.5 C-8 84.08 -7.94 82.5 -7.98 79.8 C-8 78.83 -8.01 77.85 -8.03 76.85 C-8.04 75.79 -8.06 74.74 -8.07 73.65 C-8.09 72.57 -8.11 71.49 -8.13 70.38 C-8.2 65.74 -8.27 61.11 -8.34 56.47 C-8.39 53.09 -8.45 49.72 -8.51 46.34 C-8.52 45.28 -8.53 44.23 -8.55 43.14 C-8.57 42.17 -8.58 41.19 -8.6 40.19 C-8.61 39.33 -8.62 38.47 -8.64 37.58 C-8.66 35.44 -8.66 35.44 -9.79 33.5 C-10.05 29.39 -10.06 25.29 -10.08 21.17 C-10.1 19.14 -10.15 17.1 -10.19 15.06 C-10.2 13.77 -10.21 12.49 -10.21 11.16 C-10.23 9.98 -10.24 8.8 -10.26 7.58 C-9.79 4.5 -9.79 4.5 -8.12 2.11 C-5.21 0.1 -3.52 -0.01 0 0 Z " fill="#FAFCFC" transform="translate(878.7890625,243.50390625)"/>
<path d="M0 0 C1.43 -0.01 1.43 -0.01 2.88 -0.02 C13.71 0.01 25.03 2.47 33.06 10.25 C33.06 10.91 33.06 11.57 33.06 12.25 C33.96 12.6 33.96 12.6 34.87 12.95 C37.62 14.58 38.59 16.24 40.19 19 C40.69 19.84 41.18 20.68 41.7 21.55 C44.13 26.35 45.36 31.13 46.19 36.44 C46.36 37.46 46.52 38.49 46.7 39.54 C47.18 44.42 47.06 49.35 47.06 54.25 C26.6 54.58 6.14 54.91 -14.94 55.25 C-14.94 60.13 -14.79 61.37 -11.61 64.82 C-6.49 69.19 -0.64 70.86 6.01 70.5 C11.58 69.82 15.47 67.49 19.94 64.27 C22.88 62.86 24.83 62.82 28.06 63.25 C33.37 67.06 37.71 72.14 40.06 78.25 C25.59 90.9 11.87 94.22 -6.94 93.25 C-17.1 92.4 -27.2 88.01 -33.94 80.25 C-34.74 79.71 -35.55 79.18 -36.38 78.62 C-43.49 72.03 -46.84 62.2 -47.24 52.66 C-47.26 51.07 -47.26 49.47 -47.25 47.88 C-47.24 46.62 -47.24 46.62 -47.24 45.34 C-47.04 35.24 -44.18 27.83 -38.94 19.25 C-39.6 18.59 -40.26 17.93 -40.94 17.25 C-40.19 16.86 -39.45 16.47 -38.69 16.06 C-35.74 14.12 -34.1 12 -31.94 9.25 C-31.28 9.25 -30.62 9.25 -29.94 9.25 C-29.94 8.59 -29.94 7.93 -29.94 7.25 C-28.09 6.45 -26.23 5.66 -24.38 4.88 C-23.34 4.43 -22.31 3.99 -21.25 3.54 C-13.94 0.69 -7.77 -0.06 0 0 Z " fill="#01660D" transform="translate(257.9375,240.75)"/>
<path d="M0 0 C1.59 1.39 3.09 2.84 4.56 4.36 C4.06 5.84 4.06 5.84 3.56 7.36 C2.77 7.65 1.99 7.94 1.18 8.23 C-2.11 9.65 -2.75 11.3 -4.44 14.36 C-5.1 14.36 -5.76 14.36 -6.44 14.36 C-6.54 14.96 -6.65 15.56 -6.75 16.17 C-7.55 18.72 -8.26 19.83 -10.44 21.36 C-15.01 20.8 -19.06 18.05 -23.04 15.89 C-31.5 11.48 -41.58 11.06 -50.69 13.67 C-56.42 15.59 -61.54 17.55 -65.44 22.36 C-65.44 23.35 -65.44 24.34 -65.44 25.36 C-66.25 26.91 -67.09 28.45 -67.94 29.98 C-72.05 38.79 -72.07 49.71 -69 58.92 C-64.9 67.41 -57.07 72.29 -48.44 75.36 C-40.24 78.09 -30.9 76.03 -23.29 72.31 C-22.37 71.84 -22.37 71.84 -21.44 71.36 C-21.42 70.58 -21.4 69.81 -21.38 69 C-21.29 65.5 -21.18 61.99 -21.07 58.48 C-21.04 57.26 -21 56.04 -20.97 54.78 C-20.93 53.61 -20.9 52.44 -20.86 51.24 C-20.81 49.62 -20.81 49.62 -20.76 47.97 C-20.44 45.36 -20.44 45.36 -18.44 43.36 C-18.11 43.69 -17.78 44.02 -17.44 44.36 C-16.1 44.45 -14.75 44.47 -13.41 44.46 C-12.6 44.45 -11.79 44.45 -10.96 44.45 C-10.1 44.44 -9.25 44.43 -8.38 44.42 C-7.52 44.42 -6.67 44.41 -5.79 44.41 C-3.67 44.4 -1.56 44.38 0.56 44.36 C0.56 45.02 0.56 45.68 0.56 46.36 C1.22 46.36 1.88 46.36 2.56 46.36 C2.76 51.96 2.9 57.57 3 63.17 C3.04 65.08 3.09 66.99 3.16 68.89 C3.26 71.64 3.3 74.38 3.34 77.12 C3.38 77.97 3.42 78.82 3.46 79.69 C3.47 82.16 3.38 84.03 2.56 86.36 C0.15 88.62 -2.46 89.98 -5.44 91.36 C-6.28 91.84 -7.13 92.31 -8 92.8 C-23.1 100.1 -43.21 103.9 -59.44 98.36 C-76.28 92.39 -86.86 83.91 -95.44 68.36 C-95.85 67.64 -96.25 66.93 -96.67 66.19 C-101.89 56.47 -102.2 42.12 -99.62 31.4 C-98.28 26.98 -97.01 23.21 -94.44 19.36 C-94.77 19.69 -95.1 20.02 -95.44 20.36 C-96.43 20.85 -96.43 20.85 -97.44 21.36 C-96.45 17.89 -96.45 17.89 -95.44 14.36 C-94.78 14.36 -94.12 14.36 -93.44 14.36 C-93.44 13.7 -93.44 13.04 -93.44 12.36 C-92.72 11.95 -92 11.53 -91.25 11.11 C-88.45 9.37 -86.84 7.52 -84.8 4.97 C-79.75 -1 -73.61 -4.66 -66.44 -7.64 C-65.49 -8.04 -64.54 -8.43 -63.57 -8.84 C-42.98 -16.03 -17.66 -13.07 0 0 Z " fill="#F9FCFB" transform="translate(675.44140625,230.640625)"/>
<path d="M0 0 C4.09 -0.02 8.19 -0.04 12.28 -0.05 C13.67 -0.06 15.07 -0.07 16.46 -0.08 C18.46 -0.09 20.46 -0.09 22.46 -0.1 C23.67 -0.1 24.87 -0.11 26.11 -0.11 C29 0 29 0 31 1 C31.49 2.85 31.96 4.7 32.39 6.56 C33.55 11.22 35.23 15.72 36.81 20.25 C37.39 21.9 37.39 21.9 37.97 23.58 C42.58 36.75 47.33 49.86 52.08 62.96 C52.34 63.67 52.59 64.37 52.85 65.09 C53.98 68.21 55.12 71.33 56.27 74.44 C56.64 75.43 57.01 76.42 57.39 77.44 C57.7 78.29 58.02 79.13 58.34 80 C59 82 59 82 59 84 C59.66 84 60.32 84 61 84 C61 84.66 61 85.32 61 86 C61.66 86 62.32 86 63 86 C63.17 85.41 63.34 84.82 63.52 84.22 C65.48 77.55 67.67 70.99 69.95 64.42 C70.33 63.33 70.7 62.25 71.09 61.13 C71.88 58.83 72.68 56.53 73.48 54.24 C74.67 50.8 75.86 47.37 77.04 43.93 C81.9 29.9 86.88 15.93 92 2 C91.01 1.5 91.01 1.5 90 1 C92.92 -0.46 95.5 -0.11 98.76 -0.1 C99.75 -0.1 99.75 -0.1 100.77 -0.09 C102.89 -0.09 105.01 -0.08 107.12 -0.06 C108.56 -0.06 110 -0.05 111.43 -0.05 C114.96 -0.04 118.48 -0.02 122 0 C123.34 4.01 122.26 5.72 120.75 9.62 C120.09 11.38 120.09 11.38 119.42 13.16 C118 16 118 16 115 17 C113.84 19.16 113.84 19.16 112.95 21.86 C112.58 22.86 112.22 23.87 111.84 24.91 C111.46 25.99 111.08 27.07 110.69 28.19 C109.89 30.4 109.08 32.62 108.27 34.83 C107.69 36.43 107.69 36.43 107.09 38.07 C105.78 41.59 104.33 45.01 102.81 48.44 C100.77 53.08 99 57.76 97.38 62.56 C94.15 72.06 90.23 81.27 86.31 90.5 C83.55 97.05 81.02 103.6 78.86 110.39 C78.01 112.96 77.01 115.48 76 118 C66.1 118 56.2 118 46 118 C41.5 107.87 41.5 107.87 39.7 103.26 C39.28 102.21 38.87 101.17 38.45 100.09 C38.01 98.97 37.58 97.84 37.12 96.69 C36.65 95.48 36.18 94.26 35.69 93.02 C31.3 81.8 26.93 70.57 22.57 59.33 C19.26 50.79 15.93 42.26 12.59 33.73 C11.48 30.91 10.38 28.09 9.27 25.26 C8.55 23.43 7.83 21.6 7.11 19.77 C6.11 17.21 5.11 14.65 4.11 12.09 C3.81 11.33 3.5 10.57 3.2 9.79 C1.93 6.55 0.79 3.38 0 0 Z " fill="#00660C" transform="translate(92,215)"/>
<path d="M0 0 C0.5 1.49 0.5 1.49 1 3 C2.41 3.94 3.83 4.88 5.25 5.8 C13.13 11.21 16.47 17.88 19 27 C19.61 32.1 19.59 37.14 19.49 42.27 C19.48 43.69 19.47 45.1 19.47 46.52 C19.45 50.2 19.4 53.88 19.34 57.56 C19.29 61.34 19.27 65.11 19.24 68.88 C19.19 76.26 19.11 83.63 19 91 C15.03 91.02 11.06 91.04 7.09 91.05 C5.74 91.06 4.39 91.07 3.04 91.08 C1.1 91.09 -0.84 91.09 -2.78 91.1 C-4.53 91.11 -4.53 91.11 -6.32 91.11 C-9 91 -9 91 -10 90 C-10.1 88.45 -10.14 86.89 -10.14 85.33 C-10.15 84.34 -10.16 83.34 -10.16 82.32 C-10.17 81.23 -10.17 80.15 -10.18 79.03 C-10.2 76.74 -10.22 74.46 -10.25 72.17 C-10.28 68.56 -10.31 64.95 -10.33 61.34 C-10.34 57.86 -10.38 54.38 -10.43 50.9 C-10.42 49.83 -10.42 48.76 -10.42 47.66 C-10.53 40.96 -11.64 36.79 -15 31 C-15 30.34 -15 29.68 -15 29 C-17.48 28.01 -17.48 28.01 -20 27 C-20 26.34 -20 25.68 -20 25 C-26.5 25.45 -32.79 25.93 -39 28 C-39.5 29.49 -39.5 29.49 -40 31 C-40.66 31 -41.32 31 -42 31 C-42.31 31.93 -42.62 32.86 -42.94 33.81 C-43.62 35.88 -44.31 37.94 -45 40 C-45.09 41.67 -45.12 43.35 -45.11 45.02 C-45.11 46.55 -45.11 46.55 -45.11 48.12 C-45.11 49.22 -45.1 50.32 -45.1 51.45 C-45.1 52.58 -45.09 53.7 -45.09 54.87 C-45.09 58.47 -45.08 62.08 -45.06 65.69 C-45.06 68.13 -45.05 70.57 -45.05 73.02 C-45.04 79.01 -45.02 85.01 -45 91 C-48.97 91.02 -52.94 91.04 -56.91 91.05 C-58.26 91.06 -59.61 91.07 -60.96 91.08 C-62.9 91.09 -64.84 91.09 -66.78 91.1 C-68.53 91.11 -68.53 91.11 -70.32 91.11 C-73 91 -73 91 -74 90 C-74.1 87.21 -74.14 84.44 -74.13 81.64 C-74.13 80.76 -74.13 79.89 -74.13 78.98 C-74.14 76.07 -74.14 73.16 -74.13 70.25 C-74.13 68.24 -74.13 66.22 -74.14 64.21 C-74.14 59.98 -74.14 55.75 -74.13 51.53 C-74.12 46.1 -74.13 40.67 -74.13 35.23 C-74.14 31.07 -74.14 26.91 -74.13 22.75 C-74.13 20.75 -74.13 18.75 -74.14 16.74 C-74.14 13.95 -74.13 11.15 -74.13 8.36 C-74.13 7.52 -74.13 6.69 -74.14 5.82 C-74.11 0.11 -74.11 0.11 -73 -1 C-70.85 -1.09 -68.71 -1.11 -66.56 -1.1 C-65.25 -1.09 -63.95 -1.09 -62.6 -1.09 C-61.21 -1.08 -59.83 -1.07 -58.44 -1.06 C-57.04 -1.06 -55.65 -1.05 -54.26 -1.05 C-50.84 -1.04 -47.42 -1.02 -44 -1 C-43.73 0.13 -43.46 1.27 -43.19 2.44 C-42.8 3.61 -42.4 4.79 -42 6 C-41.01 6.33 -40.02 6.66 -39 7 C-37.3 5.8 -35.61 4.6 -33.95 3.34 C-24.53 -3.14 -10.59 -3.53 0 0 Z " fill="#00660C" transform="translate(383,242)"/>
<path d="M0 0 C1.08 0.01 2.17 0.01 3.28 0.02 C5.04 0.02 5.04 0.02 6.83 0.03 C8.68 0.04 8.68 0.04 10.56 0.05 C12.42 0.06 12.42 0.06 14.31 0.06 C17.37 0.08 20.44 0.09 23.5 0.11 C23.5 0.77 23.5 1.43 23.5 2.11 C24.16 2.11 24.82 2.11 25.5 2.11 C25.5 3.43 25.5 4.75 25.5 6.11 C26.16 6.11 26.82 6.11 27.5 6.11 C27.83 6.77 28.16 7.43 28.5 8.11 C28.97 7.79 29.45 7.46 29.93 7.13 C40.1 0.41 49.49 -0.94 61.5 0.11 C70.04 1.9 75.93 6.92 80.81 14.02 C85.93 23.19 85.79 34.02 85.7 44.22 C85.69 45.42 85.69 46.63 85.69 47.87 C85.68 51.68 85.65 55.49 85.62 59.3 C85.61 61.9 85.61 64.5 85.6 67.1 C85.58 73.44 85.54 79.78 85.5 86.11 C76.59 86.11 67.68 86.11 58.5 86.11 C57.36 83.83 57.39 82.62 57.42 80.08 C57.42 79.25 57.43 78.42 57.44 77.56 C57.45 76.66 57.46 75.76 57.47 74.83 C57.49 72.92 57.5 71 57.51 69.09 C57.53 66.08 57.56 63.07 57.6 60.05 C57.63 57.15 57.64 54.24 57.66 51.33 C57.67 50.44 57.69 49.55 57.7 48.64 C57.73 41.34 57.52 33.82 52.5 28.11 C52.5 27.45 52.5 26.79 52.5 26.11 C45.47 24.08 37.92 23.93 31.31 27.24 C29.09 28.33 29.09 28.33 27.5 30.11 C26.12 35.78 26.28 41.62 26.18 47.42 C26.16 48.5 26.14 49.58 26.12 50.69 C26.06 54.12 26 57.56 25.94 60.99 C25.89 63.32 25.85 65.66 25.81 67.99 C25.7 73.7 25.6 79.41 25.5 85.11 C21.4 87.17 16.07 86.3 11.56 86.3 C10.45 86.31 9.34 86.33 8.2 86.34 C6.6 86.34 6.6 86.34 4.97 86.34 C4 86.35 3.02 86.35 2.01 86.36 C-0.5 86.11 -0.5 86.11 -3.5 84.11 C-3.79 81.43 -3.89 78.97 -3.86 76.28 C-3.86 75.47 -3.86 74.67 -3.86 73.83 C-3.87 71.15 -3.85 68.48 -3.83 65.8 C-3.83 63.94 -3.82 62.09 -3.82 60.23 C-3.82 56.34 -3.8 52.45 -3.78 48.56 C-3.75 43.56 -3.74 38.56 -3.74 33.56 C-3.73 29.73 -3.72 25.89 -3.71 22.06 C-3.71 20.22 -3.7 18.37 -3.7 16.53 C-3.69 13.96 -3.68 11.39 -3.66 8.81 C-3.66 7.66 -3.66 7.66 -3.66 6.48 C-3.61 0.16 -3.61 0.16 0 0 Z " fill="#FAFCFC" transform="translate(777.500244140625,243.886474609375)"/>
<path d="M0 0 C8.15 6.6 13.31 15.29 15.54 25.46 C15.72 26.24 15.91 27.02 16.1 27.83 C16.63 31.01 16.63 34.05 16.6 37.27 C16.59 38.43 16.58 39.6 16.57 40.79 C16.56 41.67 16.55 42.55 16.54 43.46 C13.43 44.5 11.31 44.58 8.05 44.57 C6.93 44.57 5.81 44.57 4.66 44.57 C3.45 44.57 2.24 44.56 0.99 44.56 C-0.25 44.56 -1.49 44.56 -2.76 44.55 C-6.05 44.55 -9.34 44.54 -12.63 44.53 C-15.99 44.52 -19.35 44.51 -22.71 44.51 C-29.29 44.5 -35.88 44.48 -42.46 44.46 C-39.43 51.77 -36.69 55.35 -29.54 58.7 C-24.15 60.68 -19.54 59.45 -14.45 57.4 C-12.46 56.46 -10.64 55.38 -8.78 54.21 C-5.46 52.46 -5.46 52.46 -3.01 52.61 C0.05 53.63 1.41 54.93 3.6 57.27 C4.25 57.96 4.9 58.65 5.57 59.36 C6.22 60.05 6.87 60.75 7.54 61.46 C8.86 62.8 10.2 64.13 11.54 65.46 C8.18 69.28 4.52 71.32 0.04 73.52 C-0.68 73.87 -1.39 74.22 -2.12 74.58 C-14.15 80.33 -26.57 82.68 -39.46 78.46 C-40.33 78.2 -41.19 77.95 -42.09 77.68 C-52.17 74.43 -59.8 68.83 -65.13 59.56 C-65.63 58.56 -66.14 57.56 -66.65 56.52 C-67.16 55.52 -67.67 54.53 -68.2 53.5 C-69.49 50.39 -70.06 47.79 -70.46 44.46 C-70.62 43.29 -70.77 42.12 -70.92 40.91 C-71.68 32.87 -71.64 27.42 -67.46 20.46 C-66.89 19.29 -66.31 18.11 -65.71 16.9 C-65.3 16.09 -64.89 15.29 -64.46 14.46 C-65.12 14.46 -65.78 14.46 -66.46 14.46 C-66.46 13.8 -66.46 13.14 -66.46 12.46 C-65.47 12.13 -64.48 11.8 -63.46 11.46 C-61.87 9.97 -61.87 9.97 -60.4 8.15 C-59.9 7.55 -59.39 6.96 -58.87 6.35 C-57.39 4.53 -57.39 4.53 -56.66 2.39 C-54.84 -0.54 -52.54 -1.01 -49.34 -2.16 C-47.7 -2.77 -47.7 -2.77 -46.02 -3.39 C-30.64 -8.36 -14.16 -8.84 0 0 Z " fill="#F9FCFB" transform="translate(753.46484375,250.5390625)"/>
<path d="M0 0 C0.89 0.01 1.79 0.02 2.71 0.03 C4.1 0.07 4.1 0.07 5.52 0.11 C6.46 0.12 7.4 0.13 8.37 0.15 C10.69 0.18 13.01 0.23 15.33 0.29 C16.88 3.38 16.51 6.65 16.54 10.05 C16.55 10.85 16.56 11.65 16.57 12.47 C16.6 15.12 16.62 17.77 16.65 20.43 C16.67 22.26 16.69 24.1 16.71 25.93 C16.77 30.77 16.82 35.61 16.86 40.44 C16.91 45.38 16.97 50.31 17.03 55.24 C17.13 64.93 17.23 74.61 17.33 84.29 C13.54 84.35 9.75 84.39 5.96 84.42 C4.88 84.43 3.8 84.45 2.68 84.47 C1.65 84.48 0.62 84.48 -0.44 84.49 C-1.39 84.5 -2.35 84.51 -3.33 84.52 C-5.67 84.29 -5.67 84.29 -7.67 82.29 C-7.87 79.78 -7.95 77.38 -7.94 74.86 C-7.95 74.1 -7.95 73.33 -7.96 72.54 C-7.97 70 -7.97 67.46 -7.97 64.92 C-7.97 63.16 -7.98 61.4 -7.98 59.64 C-7.99 55.94 -7.99 52.25 -7.98 48.55 C-7.98 43.82 -7.99 39.08 -8.02 34.34 C-8.03 30.7 -8.03 27.06 -8.03 23.42 C-8.03 21.67 -8.04 19.93 -8.05 18.18 C-8.06 15.74 -8.05 13.3 -8.04 10.85 C-8.05 10.13 -8.06 9.4 -8.06 8.66 C-8.03 5.73 -8.01 3.77 -6.28 1.34 C-4.09 -0.08 -2.6 -0.05 0 0 Z " fill="#FBFDFD" transform="translate(880.66796875,245.70703125)"/>
<path d="M0 0 C0 0.66 0 1.32 0 2 C1.3 1.94 1.3 1.94 2.62 1.88 C7.34 3.45 8.44 6.13 10.74 10.38 C14.67 18.57 15.12 26.03 12.62 34.69 C10.19 41.01 5.89 43.19 0 46 C-0.33 46.33 -0.66 46.66 -1 47 C-8.19 47.76 -13.14 47.3 -19 43 C-24.08 38.63 -26.6 33.91 -27.27 27.3 C-27.57 18.46 -25.6 12.99 -19.69 6.44 C-19.13 5.96 -18.57 5.49 -18 5 C-20.88 6.29 -22.87 7.66 -25 10 C-23.93 7.08 -23.22 5.22 -21 3 C-13.69 -0.23 -7.85 -1.57 0 0 Z " fill="#FAFCFC" transform="translate(464,264)"/>
<path d="M0 0 C4.25 4.12 6.28 8.77 6.5 14.69 C6.27 18.59 5.82 21.07 3.06 24 C-1.72 26.85 -6.3 28.77 -11.94 28 C-13.62 27.37 -15.29 26.71 -16.94 26 C-17.93 26 -18.92 26 -19.94 26 C-23.72 21.95 -25.27 19.34 -25.31 13.75 C-25.19 10.83 -24.87 8.8 -23.94 6 C-22.62 6 -21.3 6 -19.94 6 C-19.88 5.4 -19.81 4.8 -19.75 4.19 C-18.94 2 -18.94 2 -17.06 0.25 C-11.55 -1.96 -5.62 -1.91 0 0 Z " fill="#FAFCFC" transform="translate(894.9375,207)"/>
<path d="M0 0 C1.66 -0 1.66 -0 3.35 -0 C5.08 0.03 5.08 0.03 6.84 0.06 C8.57 0.05 8.57 0.05 10.34 0.04 C16.71 0.09 16.71 0.09 19.21 0.5 C21.62 4.12 21.51 6.78 21.51 10.97 C21.52 11.72 21.53 12.48 21.54 13.26 C21.57 15.77 21.58 18.27 21.59 20.78 C21.61 22.52 21.62 24.26 21.64 26 C21.69 30.58 21.72 35.16 21.75 39.74 C21.81 47.08 21.87 54.42 21.94 61.75 C21.96 64.32 21.98 66.89 22 69.45 C22.01 71.02 22.02 72.59 22.04 74.16 C22.04 74.87 22.04 75.59 22.05 76.33 C22.03 80.04 22.03 80.04 23.21 83.5 C23.44 82.86 23.66 82.22 23.9 81.56 C25.21 79.5 25.21 79.5 27.84 78.75 C28.62 78.66 29.4 78.58 30.21 78.5 C28.64 81.85 26.83 83.88 24.21 86.5 C21.24 86 21.24 86 18.21 85.5 C17.88 58.11 17.55 30.72 17.21 2.5 C6.32 2.99 6.32 2.99 -4.79 3.5 C-4.79 30.89 -4.79 58.28 -4.79 86.5 C-5.45 86.5 -6.11 86.5 -6.79 86.5 C-8 84.08 -7.94 82.5 -7.98 79.8 C-8 78.83 -8.01 77.85 -8.03 76.85 C-8.04 75.79 -8.06 74.74 -8.07 73.65 C-8.09 72.57 -8.11 71.49 -8.13 70.38 C-8.2 65.74 -8.27 61.11 -8.34 56.47 C-8.39 53.09 -8.45 49.72 -8.51 46.34 C-8.52 45.28 -8.53 44.23 -8.55 43.14 C-8.57 42.17 -8.58 41.19 -8.6 40.19 C-8.61 39.33 -8.62 38.47 -8.64 37.58 C-8.66 35.44 -8.66 35.44 -9.79 33.5 C-10.05 29.39 -10.06 25.29 -10.08 21.17 C-10.1 19.14 -10.15 17.1 -10.19 15.06 C-10.2 13.77 -10.21 12.49 -10.21 11.16 C-10.23 9.98 -10.24 8.8 -10.26 7.58 C-9.79 4.5 -9.79 4.5 -8.12 2.11 C-5.21 0.1 -3.52 -0.01 0 0 Z " fill="#98C19E" transform="translate(878.7890625,243.50390625)"/>
<path d="M0 0 C1.32 0 2.64 0 4 0 C4.26 0.91 4.26 0.91 4.52 1.84 C5.75 6.1 7.05 10.27 8.75 14.38 C11.05 19.98 13.02 25.68 15 31.4 C16.84 36.71 18.72 42 20.64 47.28 C21.1 48.54 21.55 49.8 22.01 51.06 C22.91 53.52 23.81 55.98 24.71 58.44 C26.71 63.97 28.54 69.12 29 75 C30.98 75.33 32.96 75.66 35 76 C35.25 74.76 35.5 73.52 35.75 72.24 C37.05 66.41 38.98 60.86 40.96 55.24 C41.34 54.13 41.73 53.02 42.12 51.88 C43.35 48.36 44.58 44.83 45.81 41.31 C46.63 38.97 47.44 36.62 48.26 34.28 C52.12 23.17 56.01 12.06 60 1 C60.99 1.33 61.98 1.66 63 2 C62.33 5.77 61.31 9.27 60.07 12.88 C59.47 14.63 59.47 14.63 58.86 16.41 C58.43 17.67 57.99 18.93 57.55 20.2 C57.1 21.52 56.65 22.83 56.2 24.15 C55.25 26.92 54.29 29.68 53.34 32.45 C52.13 35.94 50.93 39.43 49.74 42.92 C44.77 57.39 39.74 71.82 34 86 C33.34 86 32.68 86 32 86 C32 85.34 32 84.68 32 84 C31.34 84 30.68 84 30 84 C24.37 70.75 19.84 57.11 15.19 43.49 C13.54 38.66 11.87 33.83 10.19 29 C9.91 28.2 9.63 27.4 9.35 26.58 C7.35 20.89 5.18 15.29 2.85 9.73 C1.9 6.69 1.85 4.16 2 1 C1.34 0.67 0.68 0.34 0 0 Z " fill="#97C09D" transform="translate(121,215)"/>
<path d="M0 0 C1.12 -0.03 2.24 -0.05 3.4 -0.08 C8.46 0.44 10.89 2.47 14.31 6.12 C17.11 9.9 18.62 12.54 18.62 17.25 C13.25 17.32 7.88 17.38 2.5 17.41 C0.67 17.43 -1.16 17.45 -2.99 17.48 C-5.61 17.51 -8.24 17.53 -10.87 17.54 C-11.69 17.56 -12.51 17.57 -13.35 17.59 C-15.66 17.59 -15.66 17.59 -19.38 17.25 C-20.03 16.26 -20.69 15.27 -21.38 14.25 C-20.72 12.93 -20.06 11.61 -19.38 10.25 C-18.72 10.25 -18.06 10.25 -17.38 10.25 C-17.29 9.63 -17.21 9.01 -17.12 8.38 C-16.38 6.25 -16.38 6.25 -14.5 5.19 C-13.8 4.88 -13.1 4.57 -12.38 4.25 C-11.86 3.73 -11.34 3.22 -10.81 2.69 C-7.79 -0.33 -4.02 0.06 0 0 Z " fill="#F9FCFB" transform="translate(258.375,261.75)"/>
<path d="M0 0 C5.31 0.38 8.35 2.3 12 6 C13.6 8.28 14.98 10.4 16.31 12.81 C16.66 13.39 17 13.97 17.36 14.56 C19.23 17.87 20.22 20.59 20.61 24.39 C20.8 26.18 20.8 26.18 21 28 C21.66 28.33 22.32 28.66 23 29 C23.21 28.39 23.42 27.79 23.63 27.16 C26.43 19.55 30.76 9.55 38.44 5.81 C41 5 41 5 44 6 C43.24 6.49 43.24 6.49 42.46 7 C32.61 13.8 28.62 22.49 26 34 C23.46 47.95 25.28 62.03 33 74 C35.71 77.65 38.78 80.8 42 84 C37.77 84 36.21 82.24 33.14 79.48 C28.41 73.99 25.28 66.83 23 60 C21.11 61.89 21.76 65.14 21.68 67.66 C21.66 68.32 21.64 68.99 21.62 69.67 C21.56 71.8 21.5 73.93 21.44 76.06 C21.39 77.5 21.35 78.94 21.31 80.38 C21.2 83.92 21.1 87.46 21 91 C18.69 87.54 18.75 86.25 18.76 82.17 C18.76 80.98 18.75 79.78 18.75 78.54 C18.75 77.24 18.76 75.94 18.76 74.6 C18.76 73.25 18.75 71.89 18.74 70.54 C18.7 64.79 18.68 59.05 18.69 53.31 C18.7 49.79 18.68 46.27 18.65 42.75 C18.64 40.78 18.65 38.82 18.67 36.85 C18.55 26.18 16.54 16.31 9 8.38 C6.19 5.84 3.3 3.86 0 2 C0 1.34 0 0.68 0 0 Z " fill="#93BE99" transform="translate(383,243)"/>
<path d="M0 0 C4.1 2.38 6.22 6.09 7.69 10.56 C7.36 12.21 7.03 13.86 6.69 15.56 C-3.21 15.56 -13.11 15.56 -23.31 15.56 C-23.97 14.24 -24.63 12.92 -25.31 11.56 C-24.98 10.57 -24.65 9.58 -24.31 8.56 C-23.98 8.89 -23.65 9.22 -23.31 9.56 C-21.06 6.87 -19.43 4.92 -18.31 1.56 C-12.89 -1.76 -6.04 -0.8 0 0 Z " fill="#01660D" transform="translate(735.3125,263.4375)"/>
<path d="M0 0 C2.04 2.04 2.64 3.24 3.67 5.87 C3.99 6.67 4.3 7.46 4.63 8.28 C4.96 9.14 5.3 10 5.64 10.89 C6.17 12.23 6.17 12.23 6.71 13.6 C7.81 16.4 8.91 19.2 10 22 C10.65 23.66 11.31 25.32 11.96 26.99 C13.9 31.93 15.82 36.87 17.75 41.81 C18.45 43.6 19.14 45.38 19.84 47.17 C23.06 55.42 26.27 63.68 29.46 71.95 C29.72 72.64 29.99 73.33 30.26 74.03 C31.28 76.66 32.29 79.29 33.3 81.93 C36.62 90.56 40.07 99.12 43.79 107.59 C45.17 111.48 45.63 114.9 46 119 C45.67 118.34 45.34 117.68 45 117 C44.34 117 43.68 117 43 117 C37.33 102.62 31.69 88.23 26.12 73.81 C22.13 63.47 18.1 53.14 14.03 42.83 C13.2 40.71 12.36 38.6 11.53 36.48 C9.26 30.7 6.98 24.92 4.62 19.17 C4.29 18.34 3.95 17.51 3.61 16.65 C3.02 15.21 2.43 13.77 1.83 12.33 C0.12 8.09 -0.25 4.55 0 0 Z " fill="#9AC2A0" transform="translate(91,215)"/>
<path d="M0 0 C1.32 0.33 2.64 0.66 4 1 C3.66 1.65 3.32 2.3 2.98 2.98 C2.31 4.29 2.31 4.29 1.62 5.62 C1.18 6.48 0.74 7.34 0.29 8.23 C-2.43 14.08 -3.32 18.81 -2.88 25.25 C-2.82 26 -2.77 26.75 -2.72 27.53 C-2.22 33.58 -0.96 38.65 2 44 C2.63 45.17 2.63 45.17 3.28 46.36 C9.64 56.89 18.62 61.18 30 65 C30 65.66 30 66.32 30 67 C19.69 66.61 11.63 61.45 4.71 54.01 C0.23 48.76 -2.21 44.5 -5 38 C-5.33 43.28 -5.66 48.56 -6 54 C-6.33 54 -6.66 54 -7 54 C-7.96 40.32 -8.12 26.71 -8 13 C-8.66 13 -9.32 13 -10 13 C-10 12.34 -10 11.68 -10 11 C-19.4 11.5 -19.4 11.5 -29 12 C-29.33 11.01 -29.66 10.02 -30 9 C-21.42 9 -12.84 9 -4 9 C-2.68 6.03 -1.36 3.06 0 0 Z " fill="#68A46F" transform="translate(686,264)"/>
<path d="M0 0 C1.65 0 3.3 0 5 0 C4.34 1.05 3.68 2.1 3 3.19 C2 4.79 1 6.4 0 8 C-0.55 8.88 -1.09 9.75 -1.66 10.65 C-9.23 22.86 -16.47 35.28 -23.74 47.67 C-27.66 54.34 -31.58 61 -35.56 67.62 C-35.93 68.23 -36.29 68.84 -36.67 69.47 C-38.57 72.64 -40.49 75.8 -42.42 78.95 C-46.4 85.47 -50.13 91.89 -53 99 C-54.11 97.25 -54.11 97.25 -55 95 C-54.49 93.09 -54.49 93.09 -53.31 90.94 C-52.6 89.62 -52.6 89.62 -51.87 88.27 C-50.94 86.65 -50.94 86.65 -50 85 C-49.63 84.34 -49.25 83.68 -48.87 83 C-43.21 73.03 -37.34 63.18 -31.42 53.35 C-27.77 47.29 -24.16 41.2 -20.58 35.09 C-17.88 30.48 -15.14 25.89 -12.38 21.31 C-8.13 14.28 -4.04 7.15 0 0 Z " fill="#7CB083" transform="translate(568,239)"/>
<path d="M0 0 C1.32 0.33 2.64 0.66 4 1 C5.12 5.48 5.14 9.87 5.13 14.46 C5.13 15.32 5.14 16.18 5.14 17.07 C5.14 19.99 5.13 22.9 5.12 25.81 C5.12 27.32 5.12 27.32 5.12 28.87 C5.09 61.25 4.51 93.63 4 126 C2 124 2 124 1.75 121.83 C1.76 120.93 1.76 120.02 1.76 119.09 C1.76 118.05 1.75 117.01 1.75 115.95 C1.76 114.23 1.76 114.23 1.77 112.48 C1.77 111.28 1.77 110.08 1.77 108.85 C1.77 105.55 1.78 102.26 1.8 98.96 C1.81 95.52 1.81 92.08 1.81 88.63 C1.82 82.11 1.84 75.59 1.86 69.07 C1.88 61.65 1.89 54.23 1.9 46.81 C1.92 31.54 1.96 16.27 2 1 C1.34 0.67 0.68 0.34 0 0 Z " fill="#9BC3A1" transform="translate(503,207)"/>
<path d="M0 0 C4.18 -0.15 8.36 -0.26 12.54 -0.33 C13.96 -0.36 15.38 -0.4 16.81 -0.45 C28.55 -0.87 28.55 -0.87 31.96 1.18 C33.25 2.7 33.25 2.7 35 6 C35.59 6.88 36.19 7.76 36.8 8.67 C37.3 9.5 37.8 10.33 38.31 11.19 C38.82 12.03 39.34 12.87 39.86 13.73 C41 16 41 16 41 19 C44.01 19.93 44.87 20.04 48 19 C49.67 17.5 49.67 17.5 51 16 C51.66 16.33 52.32 16.66 53 17 C52.01 17.33 51.02 17.66 50 18 C48.83 20.42 48.83 20.42 48 23 C47.67 23.66 47.34 24.32 47 25 C41.95 23.23 39.47 21.04 36.74 16.5 C36.14 15.51 36.14 15.51 35.54 14.5 C35.13 13.82 34.73 13.14 34.31 12.44 C33.9 11.75 33.48 11.07 33.05 10.36 C30 5.25 30 5.25 30 3 C21.75 3 13.5 3 5 3 C4.67 3.66 4.34 4.32 4 5 C4.45 5.67 4.91 6.34 5.37 7.03 C7.46 10.12 9.54 13.22 11.62 16.31 C12.69 17.89 12.69 17.89 13.79 19.5 C26.33 38.21 26.33 38.21 27 44 C26.34 44.99 25.68 45.98 25 47 C24.34 46.67 23.68 46.34 23 46 C23.33 44.02 23.66 42.04 24 40 C23.34 40 22.68 40 22 40 C21.73 39.48 21.46 38.96 21.17 38.42 C17.12 30.89 12.27 23.99 7.35 17 C3.99 12.15 0.86 7.62 -1 2 C-0.67 1.34 -0.34 0.68 0 0 Z " fill="#92BD98" transform="translate(904,244)"/>
<path d="M0 0 C1.21 0.01 2.42 0.01 3.67 0.02 C4.97 0.02 6.28 0.02 7.62 0.03 C9.01 0.03 10.4 0.04 11.79 0.05 C13.18 0.06 14.57 0.06 15.96 0.06 C19.38 0.08 22.8 0.09 26.22 0.11 C26.49 1.23 26.76 2.34 27.04 3.49 C27.88 7.33 27.88 7.33 31.22 9.11 C30.56 10.43 29.9 11.75 29.22 13.11 C27.9 13.11 26.58 13.11 25.22 13.11 C24.88 10.14 24.88 10.14 24.54 7.16 C24.25 4.92 24.25 4.92 23.22 2.11 C15.3 2.44 7.38 2.77 -0.78 3.11 C-0.78 32.15 -0.78 61.19 -0.78 91.11 C-1.77 91.11 -2.76 91.11 -3.78 91.11 C-3.8 79.4 -3.82 67.68 -3.83 55.96 C-3.83 50.52 -3.84 45.08 -3.85 39.64 C-3.86 34.4 -3.87 29.15 -3.87 23.9 C-3.87 21.9 -3.88 19.89 -3.88 17.89 C-3.89 15.09 -3.89 12.29 -3.89 9.49 C-3.89 8.65 -3.9 7.81 -3.9 6.95 C-3.89 0.16 -3.89 0.16 0 0 Z " fill="#4E9557" transform="translate(312.775634765625,240.886474609375)"/>
<path d="M0 0 C1.08 0.01 2.17 0.01 3.28 0.02 C5.04 0.02 5.04 0.02 6.83 0.03 C8.68 0.04 8.68 0.04 10.56 0.05 C12.42 0.06 12.42 0.06 14.31 0.06 C17.37 0.08 20.44 0.09 23.5 0.11 C23.5 0.77 23.5 1.43 23.5 2.11 C24.16 2.11 24.82 2.11 25.5 2.11 C25.5 3.43 25.5 4.75 25.5 6.11 C26.16 6.11 26.82 6.11 27.5 6.11 C27.83 6.77 28.16 7.43 28.5 8.11 C29.16 7.78 29.82 7.45 30.5 7.11 C29.75 9.55 29.75 9.55 28.5 12.11 C26.5 12.99 26.5 12.99 24.5 13.11 C23.84 12.78 23.18 12.45 22.5 12.11 C21.84 9.14 21.18 6.17 20.5 3.11 C13.57 3.11 6.64 3.11 -0.5 3.11 C-0.83 30.17 -1.16 57.23 -1.5 85.11 C-2.16 84.78 -2.82 84.45 -3.5 84.11 C-3.52 73.31 -3.54 62.5 -3.55 51.7 C-3.56 46.68 -3.56 41.67 -3.58 36.65 C-3.59 31.81 -3.59 26.98 -3.6 22.14 C-3.6 20.29 -3.6 18.44 -3.61 16.59 C-3.61 14.01 -3.61 11.43 -3.61 8.85 C-3.62 8.07 -3.62 7.3 -3.62 6.51 C-3.61 0.16 -3.61 0.16 0 0 Z " fill="#97C19D" transform="translate(777.500244140625,243.886474609375)"/>
<path d="M0 0 C0.66 0.33 1.32 0.66 2 1 C1.6 1.85 1.6 1.85 1.2 2.72 C0.67 3.88 0.67 3.88 0.12 5.06 C-0.22 5.82 -0.57 6.57 -0.93 7.35 C-3.5 13.71 -4.3 19.23 -4.19 26 C-4.19 26.77 -4.19 27.54 -4.19 28.33 C-4.12 36.72 -2.89 43.11 1.12 50.5 C1.53 51.25 1.93 52 2.34 52.77 C5.26 58.07 8.42 62 13 66 C13 66.66 13 67.32 13 68 C13.54 68.27 14.09 68.54 14.64 68.82 C17.34 70.17 20.02 71.54 22.69 72.94 C23.66 73.44 24.63 73.95 25.64 74.46 C28 76 28 76 29 79 C17.86 77.4 8.52 68.03 2.03 59.37 C-2.09 53.23 -4.78 47.02 -7 40 C-7.53 38.57 -7.53 38.57 -8.07 37.1 C-11.8 24.63 -7.72 13.47 -3 2 C-2.34 2 -1.68 2 -1 2 C-0.67 1.34 -0.34 0.68 0 0 Z " fill="#4F9558" transform="translate(580,249)"/>
<path d="M0 0 C6.58 2.88 10.66 8.56 13.38 15.06 C16.44 23.08 16.14 31.26 16.1 39.71 C16.1 40.93 16.09 42.14 16.09 43.38 C16.09 47.24 16.08 51.09 16.06 54.94 C16.06 57.56 16.05 60.17 16.05 62.79 C16.04 69.19 16.02 75.6 16 82 C13.58 78.38 13.65 76.25 13.44 71.94 C13.37 67.3 13.37 67.3 12 63 C11.9 61.66 11.86 60.32 11.86 58.98 C11.85 58.16 11.84 57.33 11.84 56.47 C11.83 55.57 11.83 54.68 11.82 53.75 C11.8 51.84 11.78 49.93 11.75 48.03 C11.72 45.02 11.69 42.02 11.67 39.02 C11.66 36.11 11.62 33.21 11.57 30.31 C11.58 29.43 11.58 28.55 11.58 27.64 C11.41 18.78 8.42 10.99 3 4 C2.01 3.34 1.02 2.68 0 2 C0 1.34 0 0.68 0 0 Z " fill="#85B68C" transform="translate(847,248)"/>
<path d="M0 0 C2.69 -0.31 2.69 -0.31 5 0 C4.67 0.48 4.35 0.97 4.01 1.47 C-4.19 14.05 -5.71 27.4 -3.54 42.12 C-1.42 49.9 2.51 57.19 9 62 C9 62.66 9 63.32 9 64 C10.32 64.66 11.64 65.32 13 66 C13 66.66 13 67.32 13 68 C11.35 67.34 9.7 66.68 8 66 C8 65.34 8 64.68 8 64 C7.4 63.73 6.8 63.45 6.18 63.17 C-0.93 59.35 -5.2 50.73 -7.49 43.29 C-10.33 30.59 -9.29 16.45 -3 5 C-2.5 4.07 -2.01 3.14 -1.5 2.18 C-1 1.46 -0.51 0.74 0 0 Z " fill="#96C09C" transform="translate(216,259)"/>
<path d="M0 0 C1.32 0 2.64 0 4 0 C4.26 0.91 4.26 0.91 4.52 1.84 C5.75 6.1 7.05 10.27 8.75 14.38 C11.05 19.97 13.02 25.67 14.99 31.39 C16.62 36.1 18.28 40.78 20.01 45.44 C20.94 47.98 21.87 50.52 22.81 53.05 C23.49 54.91 24.19 56.77 24.89 58.62 C25.52 60.34 25.52 60.34 26.16 62.09 C26.54 63.11 26.92 64.13 27.31 65.18 C28.05 68.22 27.86 70.03 27 73 C24.36 69.85 23.07 66.86 21.77 62.97 C21.36 61.78 20.95 60.58 20.54 59.35 C20.11 58.07 19.68 56.78 19.25 55.5 C18.8 54.18 18.36 52.87 17.91 51.55 C17.02 48.93 16.13 46.3 15.24 43.67 C13.58 38.77 11.89 33.88 10.19 29 C9.91 28.2 9.63 27.41 9.35 26.59 C7.35 20.89 5.18 15.29 2.85 9.73 C1.9 6.69 1.85 4.16 2 1 C1.34 0.67 0.68 0.34 0 0 Z " fill="#94BE9A" transform="translate(121,215)"/>
<path d="M0 0 C6.34 7.73 6.15 15.74 6.1 25.31 C6.1 26.28 6.09 27.24 6.09 28.24 C6.09 31.3 6.08 34.37 6.06 37.44 C6.06 39.53 6.05 41.61 6.05 43.7 C6.04 48.8 6.02 53.9 6 59 C5.01 59 4.02 59 3 59 C1.39 57.39 1.87 55.62 1.86 53.39 C1.85 52.41 1.84 51.43 1.84 50.42 C1.83 49.35 1.83 48.28 1.82 47.18 C1.8 44.93 1.78 42.68 1.75 40.43 C1.72 36.87 1.69 33.32 1.67 29.76 C1.66 26.34 1.62 22.91 1.57 19.49 C1.58 18.43 1.58 17.37 1.58 16.28 C1.47 9.66 0.79 5.79 -4 1 C-5.85 0.77 -7.7 0.59 -9.56 0.44 C-10.57 0.35 -11.59 0.27 -12.63 0.18 C-13.8 0.09 -13.8 0.09 -15 0 C-15 -0.33 -15 -0.66 -15 -1 C-3.68 -2.63 -3.68 -2.63 0 0 Z " fill="#54995D" transform="translate(830,270)"/>
<path d="M0 0 C1.32 0.33 2.64 0.66 4 1 C2.29 5.35 0.58 9.71 -1.12 14.06 C-1.5 15.03 -1.5 15.03 -1.89 16.01 C-4.7 23.16 -7.51 30.31 -10.38 37.44 C-14.44 47.56 -18.32 57.74 -22 68 C-22.66 68 -23.32 68 -24 68 C-24.77 65.74 -25.14 64.44 -24.4 62.13 C-24.06 61.47 -23.72 60.81 -23.38 60.12 C-21.6 56.41 -20.15 52.7 -18.81 48.81 C-16.6 42.49 -14.12 36.31 -11.56 30.12 C-7.45 20.19 -3.4 10.21 0 0 Z " fill="#99C19F" transform="translate(193,265)"/>
<path d="M0 0 C1.16 -0 2.32 -0 3.52 -0 C4.74 -0 5.96 0 7.22 0.01 C8.44 0 9.66 0 10.92 -0 C12.66 -0 12.66 -0 14.44 0 C15.51 0 16.58 0 17.69 0 C20.29 0.13 20.29 0.13 22.29 1.13 C21.96 1.79 21.63 2.45 21.29 3.13 C13.04 2.8 4.79 2.47 -3.71 2.13 C-4.04 16.32 -4.37 30.51 -4.71 45.13 C-12.58 44.01 -12.58 44.01 -16.53 41.13 C-17.28 40.6 -18.03 40.06 -18.8 39.51 C-19.43 39.05 -20.06 38.6 -20.71 38.13 C-21.37 37.8 -22.03 37.47 -22.71 37.13 C-22.71 36.47 -22.71 35.81 -22.71 35.13 C-18.53 35.45 -15.58 36.63 -11.99 38.68 C-11.19 39.14 -10.39 39.6 -9.56 40.07 C-8.95 40.42 -8.34 40.77 -7.71 41.13 C-7.69 39.93 -7.66 38.72 -7.64 37.48 C-7.55 33.02 -7.44 28.56 -7.34 24.1 C-7.3 22.16 -7.26 20.23 -7.22 18.3 C-7.16 15.53 -7.1 12.75 -7.03 9.98 C-7.01 9.11 -7 8.24 -6.98 7.34 C-6.8 0.01 -6.8 0.01 0 0 Z " fill="#3F8C49" transform="translate(482.71484375,206.8671875)"/>
<path d="M0 0 C1.44 0.6 2.88 1.2 4.31 1.81 C5.11 2.15 5.91 2.49 6.74 2.83 C8.99 4 10.41 5.04 12 7 C12 7.66 12 8.32 12 9 C12.89 9.35 12.89 9.35 13.8 9.7 C16.56 11.33 17.53 12.99 19.12 15.75 C19.62 16.59 20.12 17.43 20.63 18.3 C25.72 28.36 26.4 39.91 26 51 C24.68 50.67 23.36 50.34 22 50 C22.02 48.9 22.05 47.81 22.07 46.68 C22.09 45.22 22.11 43.77 22.12 42.31 C22.14 41.59 22.16 40.87 22.18 40.13 C22.21 35.91 21.79 32.81 20 29 C19.75 27.76 19.5 26.52 19.25 25.25 C17.23 16.96 11.61 11.03 5 6 C3.31 4.7 1.63 3.38 0 2 C0 1.34 0 0.68 0 0 Z " fill="#5E9F67" transform="translate(279,244)"/>
<path d="M0 0 C0 3.47 -0.83 4.64 -2.5 7.62 C-6.61 16.43 -6.63 27.35 -3.56 36.56 C-1.37 41.22 2.07 44.17 6.07 47.31 C8 49 8 49 9 52 C2 49.59 -3.05 44.38 -6.38 37.81 C-6.94 36.55 -7.48 35.28 -8 34 C-8.35 33.22 -8.71 32.44 -9.07 31.64 C-12.07 23.1 -10.02 14.6 -6.58 6.56 C-4.78 3.64 -2.78 1.98 0 0 Z " fill="#98C19E" transform="translate(610,253)"/>
<path d="M0 0 C8.91 0 17.82 0 27 0 C27 0.66 27 1.32 27 2 C27.66 2.33 28.32 2.66 29 3 C23.33 12.65 17.43 22.09 11.11 31.34 C10.36 32.47 9.61 33.61 8.89 34.77 C7.97 36.21 6.99 37.61 6 39 C5.34 39 4.68 39 4 39 C4.55 35.07 5.63 32.73 8 29.56 C11.09 25.31 13.99 20.99 16.81 16.56 C17.39 15.66 17.39 15.66 17.98 14.73 C18.34 14.16 18.71 13.59 19.08 13 C20.37 10.99 21.67 8.99 23 7 C23 5.68 23 4.36 23 3 C15.74 3 8.48 3 1 3 C0.67 2.01 0.34 1.02 0 0 Z " fill="#76AD7E" transform="translate(965,244)"/>
<path d="M0 0 C0.66 0.33 1.32 0.66 2 1 C1.67 17.17 1.34 33.34 1 50 C0.01 50 -0.98 50 -2 50 C-2.05 43.68 -2.09 37.37 -2.11 31.05 C-2.12 28.9 -2.13 26.75 -2.15 24.6 C-2.18 21.51 -2.19 18.42 -2.2 15.33 C-2.21 14.37 -2.22 13.42 -2.23 12.43 C-2.23 7.85 -2.21 4.14 0 0 Z " fill="#94BF9B" transform="translate(802,279)"/>
<path d="M0 0 C-1.62 2.04 -3.29 4.04 -5 6 C-5.66 6 -6.32 6 -7 6 C-8.25 11.89 -8.22 17.75 -8.32 23.74 C-8.34 24.87 -8.36 25.99 -8.38 27.15 C-8.44 30.72 -8.5 34.3 -8.56 37.88 C-8.61 40.3 -8.65 42.73 -8.69 45.16 C-8.8 51.11 -8.9 57.05 -9 63 C-11.47 60.53 -11.28 59.72 -11.38 56.31 C-11.42 55.33 -11.45 54.36 -11.48 53.36 C-11.51 52.3 -11.53 51.24 -11.55 50.15 C-11.58 49.06 -11.61 47.97 -11.64 46.85 C-11.7 44.54 -11.75 42.23 -11.8 39.93 C-11.87 36.41 -11.98 32.89 -12.09 29.38 C-12.15 27.14 -12.19 24.89 -12.24 22.65 C-12.3 21.08 -12.3 21.08 -12.35 19.48 C-12.45 12.23 -11.34 6.87 -6.53 1.3 C-4.38 -0.53 -2.73 -0.22 0 0 Z " fill="#9BC3A1" transform="translate(349,270)"/>
<path d="M0 0 C3.79 0.22 4.94 0.94 7.69 3.69 C12.79 9.85 12.34 17.39 12.41 24.96 C12.43 26.11 12.45 27.25 12.47 28.43 C12.53 32.08 12.58 35.73 12.62 39.38 C12.66 41.85 12.7 44.33 12.74 46.81 C12.84 52.87 12.92 58.94 13 65 C12.01 65 11.02 65 10 65 C10 64.38 9.99 63.76 9.99 63.12 C9.95 56.63 9.88 50.14 9.79 43.65 C9.76 41.23 9.74 38.81 9.73 36.39 C9.71 32.91 9.66 29.42 9.61 25.94 C9.61 24.86 9.61 23.79 9.61 22.68 C9.48 15.98 8.36 11.79 5 6 C5 5.34 5 4.68 5 4 C2.52 3.01 2.52 3.01 0 2 C0 1.34 0 0.68 0 0 Z " fill="#4E9557" transform="translate(363,267)"/>
<path d="M0 0 C4.25 1.52 5.68 4.21 7.94 8 C8.28 8.58 8.63 9.15 8.98 9.74 C11.91 14.7 14.55 19.79 17 25 C10.28 21.99 8.62 17.33 5.7 10.81 C3.82 7.7 2.23 6.58 -1 5 C-1 5.66 -1 6.32 -1 7 C-1.66 7 -2.32 7 -3 7 C-3.26 7.54 -3.52 8.08 -3.78 8.64 C-5.22 11.43 -6.83 14.08 -8.5 16.75 C-9.11 17.73 -9.72 18.72 -10.34 19.73 C-10.89 20.48 -11.44 21.23 -12 22 C-12.66 22 -13.32 22 -14 22 C-12.49 13.62 -5.58 6.12 0 0 Z " fill="#7AAF81" transform="translate(948,304)"/>
<path d="M0 0 C0.99 0.33 1.98 0.66 3 1 C2.6 1.44 2.2 1.87 1.79 2.32 C-4.21 9.07 -6.52 13.92 -6.3 23.09 C-5.9 26.97 -4.8 29.55 -3 33 C-2.86 33.76 -2.71 34.53 -2.56 35.31 C-2.14 37.21 -2.14 37.21 -0.06 38.12 C0.62 38.41 1.3 38.7 2 39 C4 41 4 41 4 43 C-0.59 42.27 -2.44 39.84 -5.32 36.38 C-9.38 30.64 -12.1 24.07 -11 17 C-9.51 12.91 -7.82 8.95 -6 5 C-5.34 5 -4.68 5 -4 5 C-2.62 3.37 -1.28 1.71 0 0 Z " fill="#5A9C62" transform="translate(444,268)"/>
<path d="M0 0 C1.65 0 3.3 0 5 0 C4.34 1.05 3.68 2.1 3 3.19 C2 4.79 1 6.4 0 8 C-0.55 8.88 -1.09 9.75 -1.66 10.65 C-4.94 15.95 -8.16 21.26 -11.27 26.66 C-11.84 27.65 -12.41 28.64 -13.01 29.67 C-14.16 31.66 -15.3 33.66 -16.43 35.66 C-16.96 36.58 -17.5 37.5 -18.05 38.45 C-18.52 39.28 -18.99 40.11 -19.48 40.96 C-21.14 43.19 -22.44 43.99 -25 45 C-23.64 40.36 -21.67 36.45 -19.12 32.38 C-18.32 31.06 -17.52 29.75 -16.72 28.44 C-16.29 27.74 -15.86 27.03 -15.41 26.31 C-12.77 21.99 -10.17 17.65 -7.56 13.31 C-7.04 12.45 -6.52 11.59 -5.99 10.7 C-5.25 9.48 -5.25 9.48 -4.5 8.24 C-4.07 7.52 -3.63 6.8 -3.19 6.05 C-2.04 4.07 -1 2.06 0 0 Z " fill="#7EB285" transform="translate(568,239)"/>
<path d="M0 0 C0.99 0.33 1.98 0.66 3 1 C2.67 1.99 2.34 2.98 2 4 C2.66 4 3.32 4 4 4 C5.6 6.03 5.6 6.03 7.48 8.86 C8.17 9.9 8.86 10.93 9.57 11.99 C10.29 13.09 11.01 14.18 11.75 15.31 C12.45 16.37 13.16 17.42 13.88 18.5 C26.35 37.33 26.35 37.33 27 43 C26.34 43.99 25.68 44.98 25 46 C24.34 45.67 23.68 45.34 23 45 C23.33 43.02 23.66 41.04 24 39 C23.34 39 22.68 39 22 39 C21.73 38.48 21.46 37.96 21.17 37.42 C17.12 29.89 12.27 22.99 7.35 16 C3.97 11.12 1.05 6.57 -1 1 C-0.67 0.67 -0.34 0.34 0 0 Z " fill="#6FA977" transform="translate(904,245)"/>
<path d="M0 0 C1.32 0.33 2.64 0.66 4 1 C3.79 1.58 3.59 2.17 3.38 2.77 C2.9 5.56 3.42 6.32 4.97 8.65 C5.42 9.35 5.87 10.05 6.34 10.76 C6.84 11.51 7.35 12.25 7.86 13.01 C8.37 13.78 8.88 14.55 9.4 15.34 C10.47 16.97 11.56 18.58 12.64 20.2 C14.31 22.68 15.96 25.17 17.6 27.67 C18.64 29.24 19.69 30.81 20.74 32.39 C21.23 33.13 21.73 33.88 22.24 34.65 C22.94 35.68 22.94 35.68 23.65 36.74 C24.05 37.34 24.46 37.95 24.88 38.58 C25.96 40.16 25.96 40.16 28 41 C28 41.66 28 42.32 28 43 C23.82 41.67 21.99 40.21 19.5 36.62 C18.83 35.66 18.15 34.69 17.46 33.7 C12.65 26.52 7.96 19.27 3.29 12 C2.21 10.33 1.11 8.66 0 7 C-0.08 4.67 -0.09 2.33 0 0 Z " fill="#93BE99" transform="translate(967,284)"/>
<path d="M0 0 C0.66 0.33 1.32 0.66 2 1 C1.26 1.53 0.51 2.06 -0.25 2.6 C-3.25 5.22 -5.07 7.95 -7 11.38 C-7.77 12.7 -8.55 14.03 -9.32 15.36 C-9.74 16.09 -10.16 16.82 -10.59 17.57 C-12.75 21.29 -14.94 24.98 -17.12 28.67 C-19.29 32.33 -21.45 35.99 -23.61 39.65 C-24.07 40.43 -24.53 41.2 -25 42 C-25.51 42.92 -26.02 43.85 -26.55 44.8 C-27.03 45.52 -27.51 46.25 -28 47 C-28.66 47 -29.32 47 -30 47 C-29.11 40.69 -25.61 35.73 -22.4 30.36 C-20.78 27.63 -19.19 24.89 -17.6 22.14 C-16.38 20.07 -15.16 18.01 -13.94 15.94 C-13.36 14.94 -12.78 13.94 -12.19 12.91 C-8.75 7.15 -5.79 3.43 0 0 Z " fill="#7AAF81" transform="translate(601,191)"/>
<path d="M0 0 C7.33 3.55 14.13 11.82 16.87 19.42 C18.9 25.99 20.13 31.91 20.06 38.81 C20.05 39.97 20.04 41.14 20.04 42.33 C20.02 43.21 20.01 44.09 20 45 C19.34 45 18.68 45 18 45 C16.8 42.6 17.05 41.52 17.25 38.88 C17.33 24.76 10.66 12.69 1 2.81 C0.34 2.21 -0.32 1.62 -1 1 C-0.67 0.67 -0.34 0.34 0 0 Z " fill="#93BE99" transform="translate(750,249)"/>
<path d="M0 0 C3.21 0.29 4.6 0.53 6.73 3.04 C11.7 11.86 14.89 19.89 12.21 29.98 C10.36 35.46 10.36 35.46 9 38 C7.51 38.5 7.51 38.5 6 39 C6.88 34.25 6.88 34.25 8 32 C9.12 22.27 9.38 12.82 3.51 4.62 C2.08 2.89 2.08 2.89 0 2 C0 1.34 0 0.68 0 0 Z " fill="#8BB992" transform="translate(465,266)"/>
<path d="M0 0 C0.99 0 1.98 0 3 0 C2.93 3.95 2.84 7.9 2.74 11.85 C2.69 13.86 2.65 15.86 2.62 17.87 C2.57 19.76 2.57 19.76 2.51 21.68 C2.49 22.84 2.46 24 2.43 25.2 C2.29 26.13 2.15 27.05 2 28 C1.01 28.66 0.02 29.32 -1 30 C-2.59 26.83 -2.15 23.42 -2.12 19.94 C-2.12 19.17 -2.12 18.4 -2.12 17.61 C-2 4.01 -2 4.01 0 0 Z " fill="#52975B" transform="translate(653,274)"/>
<path d="M0 0 C5.32 1.37 7.33 4.5 10 9 C13.12 14.71 13.66 19.63 13 26 C12 29.12 12 29.12 11 31 C10.01 30.67 9.02 30.34 8 30 C8.11 29.14 8.21 28.29 8.32 27.4 C9.42 16.98 7.93 12.61 2 4 C1.31 2.68 0.62 1.35 0 0 Z " fill="#82B489" transform="translate(1134,168)"/>
<path d="M0 0 C5.31 0.38 8.33 2.31 12 6 C13.63 8.24 15.03 10.3 16.38 12.69 C16.72 13.3 17.07 13.91 17.43 14.53 C20.25 19.78 20.97 24.17 20 30 C18.22 26.69 17.08 23.3 15.88 19.75 C12.67 11.32 7.79 6.38 0 2 C0 1.34 0 0.68 0 0 Z " fill="#5A9C63" transform="translate(383,243)"/>
<path d="M0 0 C9.66 -0.46 9.66 -0.46 13.94 1 C18.19 5.12 20.22 9.77 20.44 15.69 C20.26 19.47 19.49 22.03 17 25 C16.34 25 15.68 25 15 25 C15.88 20.12 15.88 20.12 17 19 C17.61 12.92 16.42 9.85 13 5 C9.89 2.95 7.43 2.78 3.75 2.88 C2.41 2.9 2.41 2.9 1.05 2.93 C0.37 2.95 -0.3 2.98 -1 3 C-0.67 2.01 -0.34 1.02 0 0 Z " fill="#95BF9B" transform="translate(881,206)"/>
<path d="M0 0 C1.5 1.38 1.5 1.38 3 3 C3 3.66 3 4.32 3 5 C4.25 4.98 4.25 4.98 5.52 4.97 C8.61 4.93 11.71 4.91 14.8 4.89 C16.79 4.88 18.79 4.85 20.78 4.82 C22.66 4.81 22.66 4.81 24.58 4.8 C25.74 4.79 26.9 4.78 28.09 4.77 C31 5 31 5 34 7 C26.98 8.15 20.22 7.95 13.12 7.62 C11.99 7.58 10.85 7.54 9.67 7.49 C1.27 7.13 1.27 7.13 -1 6 C-0.67 4.02 -0.34 2.04 0 0 Z " fill="#98C19E" transform="translate(709,274)"/>
<path d="M0 0 C1.32 0.33 2.64 0.66 4 1 C3.61 1.79 3.23 2.58 2.83 3.39 C-0.44 10.23 -3.04 16.8 -5.04 24.12 C-6.03 27.09 -7.19 29.45 -9 32 C-9.66 32 -10.32 32 -11 32 C-10.37 26.65 -8.63 22.08 -6.62 17.12 C-6.01 15.59 -5.4 14.05 -4.79 12.51 C-4.49 11.76 -4.19 11.02 -3.89 10.25 C-2.55 6.85 -1.27 3.43 0 0 Z " fill="#9CC4A2" transform="translate(206,232)"/>
<path d="M0 0 C0 10.23 0 20.46 0 31 C-0.99 30.67 -1.98 30.34 -3 30 C-3 20.43 -3 10.86 -3 1 C-1 0 -1 0 0 0 Z " fill="#4E9557" transform="translate(872,247)"/>
<path d="M0 0 C4.25 0.47 6.27 2.89 9 6 C9 6.66 9 7.32 9 8 C9.54 8.27 10.09 8.54 10.64 8.82 C13.34 10.17 16.02 11.54 18.69 12.94 C19.66 13.44 20.63 13.95 21.64 14.46 C24 16 24 16 25 19 C14.98 17.56 6.25 9.58 0 2 C0 1.34 0 0.68 0 0 Z " fill="#54995D" transform="translate(584,309)"/>
<path d="M0 0 C2.86 1.31 5 2.75 7.31 4.88 C13.29 10.09 19.43 12.73 27 15 C27 15.66 27 16.32 27 17 C16.43 16.6 8.56 11.18 1.36 3.73 C0 2 0 2 0 0 Z " fill="#4C9355" transform="translate(689,314)"/>
<path d="M0 0 C8.91 0 17.82 0 27 0 C27 0.66 27 1.32 27 2 C27.66 2.33 28.32 2.66 29 3 C27.68 4.32 26.36 5.64 25 7 C24.34 5.68 23.68 4.36 23 3 C15.74 3 8.48 3 1 3 C0.67 2.01 0.34 1.02 0 0 Z " fill="#95BF9B" transform="translate(965,244)"/>
<path d="M0 0 C2.61 2.32 3.88 4.58 5.31 7.75 C8.26 13.85 12.23 18.27 17 23 C12.77 23 11.21 21.24 8.14 18.48 C4.01 13.69 1.25 7.89 -1 2 C-0.67 1.34 -0.34 0.68 0 0 Z " fill="#9BC3A1" transform="translate(408,304)"/>
<path d="M0 0 C3.64 -0.35 5.43 -0.41 8.45 1.76 C15.96 9.7 15.96 9.7 18 15 C13.73 14.53 12.06 12.16 9.38 9 C6.58 5.51 6.58 5.51 3 3 C0.9 3.4 0.9 3.4 -1 4 C-0.67 2.68 -0.34 1.36 0 0 Z " fill="#4F9558" transform="translate(280,304)"/>
<path d="M0 0 C1.32 0.66 2.64 1.32 4 2 C3.67 2.33 3.34 2.66 3 3 C2.39 8.66 2.85 12.2 6 17 C5.59 19.14 5.59 19.14 5 21 C1.08 16.83 -1.43 13.57 -1.44 7.69 C-1.29 4.81 -0.92 2.76 0 0 Z " fill="#84B58B" transform="translate(871,213)"/>
<path d="M0 0 C0 4 -1.83 6.54 -3.81 9.88 C-4.17 10.49 -4.53 11.1 -4.89 11.73 C-5.59 12.93 -6.3 14.13 -7.01 15.32 C-7.91 16.85 -8.78 18.4 -9.64 19.95 C-10.09 20.62 -10.54 21.3 -11 22 C-11.66 22 -12.32 22 -13 22 C-12.41 17.41 -10.48 13.82 -8.19 9.88 C-7.84 9.25 -7.5 8.63 -7.15 8 C-5.18 4.56 -3.39 2.09 0 0 Z " fill="#7EB185" transform="translate(584,216)"/>
<path d="M0 0 C2.81 2.41 4.27 4.5 5.62 7.88 C7.82 12.67 11.4 14.42 15.95 16.77 C16.63 17.18 17.3 17.58 18 18 C18 18.66 18 19.32 18 20 C10.44 18.84 5.37 12.79 1 7 C-0.5 4.12 -0.5 4.12 -1 2 C-0.67 1.34 -0.34 0.68 0 0 Z " fill="#A1C6A7" transform="translate(514,346)"/>
<path d="M0 0 C3 1 3 1 4.07 2.67 C4.39 3.38 4.71 4.09 5.04 4.82 C5.57 5.96 5.57 5.96 6.11 7.13 C6.46 7.93 6.82 8.74 7.19 9.56 C7.56 10.37 7.92 11.18 8.3 12.01 C9.21 14 10.11 16 11 18 C7.21 17.25 7.21 17.25 5.33 14.96 C2.35 9.89 0.26 5.92 0 0 Z " fill="#93BE99" transform="translate(575,291)"/>
<path d="M0 0 C2.9 2.57 4.63 5.53 6.56 8.88 C7.16 9.9 7.76 10.93 8.38 11.99 C9.8 14.62 10.96 17.2 12 20 C6.25 17.42 4.37 14.13 1.75 8.44 C1.21 7.28 0.67 6.12 0.11 4.93 C-0.26 3.97 -0.62 3 -1 2 C-0.67 1.34 -0.34 0.68 0 0 Z " fill="#96C09C" transform="translate(953,309)"/>
<path d="M0 0 C0.33 0.66 0.66 1.32 1 2 C-0.91 6.3 -3.3 10.32 -5.69 14.38 C-6.62 15.96 -6.62 15.96 -7.57 17.59 C-8.04 18.38 -8.52 19.18 -9 20 C-9.99 19.67 -10.98 19.34 -12 19 C-11.53 18.2 -11.06 17.41 -10.57 16.59 C-9.95 15.53 -9.33 14.47 -8.69 13.38 C-8.07 12.33 -7.46 11.29 -6.82 10.21 C-5.61 8.07 -4.46 5.88 -3.39 3.66 C-2 1 -2 1 0 0 Z " fill="#9FC5A5" transform="translate(1085,299)"/>
<path d="M0 0 C4.28 0.5 6.14 1.68 9.06 4.81 C10.04 5.84 10.04 5.84 11.04 6.89 C11.68 7.59 12.33 8.28 13 9 C14.33 10.34 15.66 11.67 17 13 C16.01 14.49 16.01 14.49 15 16 C14.01 15.67 13.02 15.34 12 15 C11.59 14.13 11.17 13.27 10.75 12.38 C8.52 8.08 5.5 5.28 2 2 C1.34 1.34 0.68 0.68 0 0 Z " fill="#95BF9B" transform="translate(748,303)"/>
<path d="M0 0 C6.06 0.32 11.31 3.27 16 7 C16 7.99 16 8.98 16 10 C12.05 9.44 9.56 8.29 6.31 6 C3.25 3.84 3.25 3.84 0 2 C0 1.34 0 0.68 0 0 Z " fill="#52975B" transform="translate(460,242)"/>
<path d="M0 0 C1.44 0.6 2.88 1.2 4.31 1.81 C5.11 2.15 5.91 2.49 6.74 2.83 C8.99 4 10.41 5.04 12 7 C12 7.66 12 8.32 12 9 C12.66 9 13.32 9 14 9 C15.06 10.81 15.06 10.81 16 13 C15.67 13.99 15.34 14.98 15 16 C14.59 15.49 14.18 14.98 13.75 14.46 C10.02 10.02 6.3 6.49 1.5 3.23 C1.01 2.82 0.51 2.42 0 2 C0 1.34 0 0.68 0 0 Z " fill="#4F9558" transform="translate(279,244)"/>
<path d="M0 0 C4.49 0.42 7.41 2.37 11.04 4.84 C13.07 6.04 14.67 6.68 17 7 C18.77 5.65 18.77 5.65 20 4 C20.66 4.33 21.32 4.66 22 5 C19.79 7.82 18.47 8.89 14.94 9.69 C9.13 8.67 4.58 5.66 0 2 C0 1.34 0 0.68 0 0 Z " fill="#519659" transform="translate(649,245)"/>
<path d="M0 0 C1.32 0.33 2.64 0.66 4 1 C3.08 3.48 2.14 5.96 1.19 8.44 C0.93 9.14 0.67 9.85 0.4 10.58 C-0.32 12.42 -1.15 14.22 -2 16 C-2.99 16.33 -3.98 16.66 -5 17 C-4.35 11 -2.14 5.6 0 0 Z " fill="#8FBC96" transform="translate(193,265)"/>
<path d="M0 0 C2.69 -0.06 2.69 -0.06 6 1 C8.21 3.76 9.87 6.65 11 10 C10.63 12.29 10.63 12.29 10 14 C9.53 13.3 9.06 12.6 8.57 11.88 C7.95 10.97 7.33 10.06 6.69 9.12 C6.07 8.22 5.46 7.32 4.82 6.38 C3.05 3.8 3.05 3.8 0 2 C0 1.34 0 0.68 0 0 Z " fill="#51965A" transform="translate(732,264)"/>
<path d="M0 0 C1.32 0 2.64 0 4 0 C5.71 5.66 7.39 11.31 9 17 C8.01 17 7.02 17 6 17 C1.41 6.63 1.41 6.63 2 1 C1.34 0.67 0.68 0.34 0 0 Z " fill="#6DA774" transform="translate(121,215)"/>
<path d="M0 0 C2 2.51 3.77 5.03 5 8 C4.67 8.99 4.34 9.98 4 11 C1.08 8.38 -0.87 5.27 -3 2 C-4.74 0.26 -7.19 0.63 -9.56 0.44 C-10.57 0.35 -11.59 0.27 -12.63 0.18 C-13.8 0.09 -13.8 0.09 -15 0 C-15 -0.33 -15 -0.66 -15 -1 C-3.68 -2.63 -3.68 -2.63 0 0 Z " fill="#589B60" transform="translate(830,270)"/>
<path d="M0 0 C1.65 0.33 3.3 0.66 5 1 C3.79 6.32 2.27 11.04 0 16 C-0.99 15.67 -1.98 15.34 -3 15 C-1.35 10.71 0.3 6.42 2 2 C1.34 1.34 0.68 0.68 0 0 Z " fill="#5F9F68" transform="translate(210,215)"/>
<path d="M0 0 C5.19 3.74 8.82 7.88 11 14 C10.31 17.06 10.31 17.06 9 19 C8.34 18.67 7.68 18.34 7 18 C7.33 16.02 7.66 14.04 8 12 C7.34 12 6.68 12 6 12 C5.18 10.56 4.37 9.13 3.56 7.69 C3.11 6.89 2.66 6.09 2.19 5.26 C1 3 1 3 0 0 Z " fill="#5A9C62" transform="translate(920,272)"/>
<path d="M0 0 C5.04 1.87 8.01 5.98 10.31 10.69 C11 13 11 13 11 16 C9.13 15.83 9.13 15.83 7 15 C5.84 12.64 5.84 12.64 4.94 9.69 C3.75 5.88 2.58 3.07 0 0 Z " fill="#92BD98" transform="translate(266,263)"/>
<path d="M0 0 C0.33 0.66 0.66 1.32 1 2 C0.33 3.73 0.33 3.73 -0.75 5.75 C-1.12 6.46 -1.49 7.16 -1.88 7.89 C-2.43 8.93 -2.43 8.93 -3 10 C-3.58 11.15 -4.15 12.31 -4.75 13.5 C-5.16 14.32 -5.58 15.15 -6 16 C-7.14 14.32 -7.14 14.32 -8 12 C-7.21 9.49 -7.21 9.49 -5.81 6.88 C-5.14 5.57 -5.14 5.57 -4.46 4.24 C-3 2 -3 2 0 0 Z " fill="#8CBA93" transform="translate(521,322)"/>
<path d="M0 0 C0.66 0 1.32 0 2 0 C2.41 1.07 2.83 2.14 3.25 3.25 C5.17 7.71 7.55 10.15 11.75 12.62 C12.49 13.08 13.24 13.53 14 14 C14 14.66 14 15.32 14 16 C8.19 14.73 4.44 11.75 1 7 C0.18 4.51 0.05 2.66 0 0 Z " fill="#A1C7A7" transform="translate(709,295)"/>
<path d="M0 0 C1.52 1.18 1.52 1.18 3 3 C3.07 5.48 3.07 5.48 2.69 8.19 C2.51 9.54 2.51 9.54 2.32 10.92 C2.22 11.61 2.11 12.29 2 13 C0.68 13 -0.64 13 -2 13 C-1.86 11.21 -1.71 9.42 -1.56 7.62 C-1.48 6.63 -1.4 5.63 -1.32 4.6 C-1 2 -1 2 0 0 Z " fill="#53985C" transform="translate(1144,185)"/>
<path d="M0 0 C1.49 0.99 1.49 0.99 3 2 C3.14 2.76 3.29 3.53 3.44 4.31 C4.32 8.52 7.02 11.02 10 14 C10 14.66 10 15.32 10 16 C5.48 14 2.74 11.07 0 7 C-0.94 3.62 -0.94 3.62 -1 1 C-0.67 0.67 -0.34 0.34 0 0 Z " fill="#6AA672" transform="translate(240,295)"/>
<path d="M0 0 C-1.62 2.04 -3.29 4.04 -5 6 C-5.66 6 -6.32 6 -7 6 C-7.33 7.65 -7.66 9.3 -8 11 C-9.32 11.33 -10.64 11.66 -12 12 C-11.4 10.56 -10.8 9.12 -10.19 7.69 C-9.85 6.89 -9.51 6.09 -9.17 5.26 C-6.83 0.74 -5.1 -0.41 0 0 Z " fill="#8DBA93" transform="translate(349,270)"/>
<path d="M0 0 C3.8 0.22 4.97 0.97 7.75 3.69 C10.04 6.65 10.73 9.23 11 13 C8 12 8 12 6.31 9.06 C5 6 5 6 5 4 C2.52 3.01 2.52 3.01 0 2 C0 1.34 0 0.68 0 0 Z " fill="#9BC3A1" transform="translate(363,267)"/>
<path d="M0 0 C1.65 0 3.3 0 5 0 C2.11 4.96 -0.76 9.12 -5 13 C-5.33 12.34 -5.66 11.68 -6 11 C-4.79 8.4 -4.79 8.4 -3.06 5.38 C-2.21 3.87 -2.21 3.87 -1.35 2.34 C-0.9 1.57 -0.46 0.79 0 0 Z " fill="#7CB083" transform="translate(568,239)"/>
<path d="M0 0 C1.32 0.33 2.64 0.66 4 1 C0.53 8.43 0.53 8.43 -3 16 C-3.33 16 -3.66 16 -4 16 C-3.48 10.13 -2.24 5.45 0 0 Z " fill="#92BD98" transform="translate(206,232)"/>
<path d="M0 0 C0.66 0 1.32 0 2 0 C1.37 5.05 -0.13 9.3 -2 14 C-2.66 14 -3.32 14 -4 14 C-5.07 11.27 -5.08 10.21 -4 7.42 C-3.53 6.54 -3.05 5.66 -2.56 4.75 C-2.09 3.86 -1.62 2.97 -1.13 2.05 C-0.76 1.37 -0.38 0.7 0 0 Z " fill="#ACCDB1" transform="translate(173,319)"/>
<path d="M0 0 C4.13 3.67 7.35 7.63 9 13 C8.6 15.25 8.6 15.25 8 17 C4.45 11.46 1.41 6.47 0 0 Z " fill="#9BC3A1" transform="translate(293,254)"/>
<path d="M0 0 C1.94 0.69 1.94 0.69 4 2 C4.75 4.62 4.75 4.62 5 7 C3.02 6.34 1.04 5.68 -1 5 C-1 5.66 -1 6.32 -1 7 C-1.99 6.67 -2.98 6.34 -4 6 C-1.12 1.12 -1.12 1.12 0 0 Z " fill="#51975A" transform="translate(948,304)"/>
<path d="M0 0 C0.66 0.33 1.32 0.66 2 1 C1.43 1.77 0.87 2.54 0.29 3.34 C-0.45 4.34 -1.18 5.34 -1.94 6.38 C-3.03 7.87 -3.03 7.87 -4.15 9.4 C-5.98 11.83 -5.98 11.83 -7 14 C-7.66 14 -8.32 14 -9 14 C-9 13.01 -9 12.02 -9 11 C-8.34 11 -7.68 11 -7 11 C-6.92 10.28 -6.84 9.56 -6.75 8.81 C-5.84 5.41 -4.36 3.58 -2 1 C-1.34 0.67 -0.68 0.34 0 0 Z " fill="#94BF9B" transform="translate(1113,253)"/>
<path d="M0 0 C0.15 1.18 0.15 1.18 0.31 2.38 C0.78 5.33 0.78 5.33 4 7 C3.34 8.32 2.68 9.64 2 11 C0.68 11 -0.64 11 -2 11 C-2.33 7.7 -2.66 4.4 -3 1 C-1 0 -1 0 0 0 Z " fill="#94BF9B" transform="translate(340,243)"/>
<path d="M0 0 C0.66 0.33 1.32 0.66 2 1 C0.73 3.04 -0.61 5.04 -2 7 C-2.66 7 -3.32 7 -4 7 C-4.29 7.74 -4.58 8.49 -4.88 9.25 C-5.82 11.57 -6.85 13.78 -8 16 C-8.66 16 -9.32 16 -10 16 C-9.67 14.35 -9.34 12.7 -9 11 C-8.34 11 -7.68 11 -7 11 C-6.67 9.35 -6.34 7.7 -6 6 C-5.01 5.67 -4.02 5.34 -3 5 C-1.3 2.5 -1.3 2.5 0 0 Z " fill="#84B58A" transform="translate(1123,236)"/>
<path d="M0 0 C0.99 0.33 1.98 0.66 3 1 C3.57 10.74 3.57 10.74 0 15 C-0.66 15 -1.32 15 -2 15 C-1.12 10.12 -1.12 10.12 0 9 C0.07 7.48 0.08 5.96 0.06 4.44 C0.05 3.2 0.05 3.2 0.04 1.93 C0.02 1.3 0.01 0.66 0 0 Z " fill="#54985D" transform="translate(898,216)"/>
<path d="M0 0 C1.79 0.48 3.58 0.96 5.38 1.44 C6.37 1.7 7.37 1.97 8.4 2.25 C11 3 11 3 13 4 C13 4.66 13 5.32 13 6 C7.59 5.53 3.79 4.76 -1 2 C-0.67 1.34 -0.34 0.68 0 0 Z " fill="#448F4E" transform="translate(703,325)"/>
<path d="M0 0 C0.99 0.33 1.98 0.66 3 1 C3 3.97 3 6.94 3 10 C1.62 8.71 0.29 7.37 -1 6 C-1 5.34 -1 4.68 -1 4 C-1.66 3.67 -2.32 3.34 -3 3 C-2.01 2.01 -1.02 1.02 0 0 Z " fill="#62A16A" transform="translate(475,322)"/>
<path d="M0 0 C0.66 0.33 1.32 0.66 2 1 C0.53 3.2 -0.93 5.4 -2.41 7.6 C-3.36 9.03 -4.3 10.48 -5.22 11.93 C-6.1 13.32 -7.04 14.67 -8 16 C-8.66 16 -9.32 16 -10 16 C-9.58 11.09 -7.48 9.32 -4 6 C-2.56 4.05 -1.29 2.05 0 0 Z " fill="#86B68C" transform="translate(1104,268)"/>
<path d="M0 0 C0.99 0.5 0.99 0.5 2 1 C2 1.66 2 2.32 2 3 C2.66 3 3.32 3 4 3 C4.33 6.3 4.66 9.6 5 13 C4.01 13.5 4.01 13.5 3 14 C-0.44 4.59 -0.44 4.59 0 0 Z " fill="#6CA774" transform="translate(299,268)"/>
<path d="M0 0 C0.99 0.33 1.98 0.66 3 1 C2.06 2.11 1.13 3.21 0.19 4.31 C-0.33 4.93 -0.86 5.54 -1.39 6.18 C-4.34 9.52 -4.34 9.52 -6 11 C-6.66 11 -7.32 11 -8 11 C-7.34 9.02 -6.68 7.04 -6 5 C-5.34 5 -4.68 5 -4 5 C-2.62 3.37 -1.28 1.71 0 0 Z " fill="#A0C6A6" transform="translate(444,268)"/>
<path d="M0 0 C0.66 0.33 1.32 0.66 2 1 C1.4 2.44 0.8 3.88 0.19 5.31 C-0.32 6.51 -0.32 6.51 -0.83 7.74 C-1.98 9.97 -3.14 11.35 -5 13 C-6 11 -6 11 -5.44 8.84 C-5.15 8.02 -4.86 7.21 -4.56 6.38 C-4.28 5.56 -3.99 4.74 -3.69 3.9 C-3.46 3.27 -3.24 2.65 -3 2 C-2.34 2 -1.68 2 -1 2 C-0.67 1.34 -0.34 0.68 0 0 Z " fill="#A1C7A7" transform="translate(580,249)"/>
<path d="M0 0 C0.33 0.66 0.66 1.32 1 2 C1.66 2 2.32 2 3 2 C2.58 3.65 2.14 5.29 1.69 6.94 C1.44 7.85 1.2 8.77 0.95 9.71 C0.64 10.47 0.32 11.22 0 12 C-0.99 12.33 -1.98 12.66 -3 13 C-2.34 8.51 -1.3 4.33 0 0 Z " fill="#B0CFB5" transform="translate(187,280)"/>
<path d="M0 0 C1.32 0.66 2.64 1.32 4 2 C2.74 3.01 1.46 4.01 0.19 5 C-0.87 5.84 -0.87 5.84 -1.96 6.69 C-4 8 -4 8 -7 8 C-5.62 3.86 -3.4 2.68 0 0 Z " fill="#3C8A46" transform="translate(615,247)"/>
<path d="M0 0 C0.66 0.33 1.32 0.66 2 1 C0 4 0 4 -2.44 5.38 C-5.36 7.23 -6.32 9.03 -8 12 C-8.66 12 -9.32 12 -10 12 C-10.33 11.01 -10.66 10.02 -11 9 C-7.37 6.03 -3.74 3.06 0 0 Z " fill="#85B68C" transform="translate(1063,336)"/>
<path d="M0 0 C0.66 0.33 1.32 0.66 2 1 C1.26 1.54 0.51 2.07 -0.25 2.62 C-3.15 4.91 -3.15 4.91 -5.12 8.19 C-7 11 -7 11 -10 12 C-8.11 6.32 -4.78 3.41 0 0 Z " fill="#6BA673" transform="translate(601,191)"/>
<path d="M0 0 C0.66 0.33 1.32 0.66 2 1 C1.53 1.74 1.05 2.49 0.56 3.25 C-0.78 5.61 -1.51 7.37 -2 10 C-3.32 9.34 -4.64 8.68 -6 8 C-5.19 5.56 -5.19 5.56 -4 3 C-3.01 2.67 -2.02 2.34 -1 2 C-0.67 1.34 -0.34 0.68 0 0 Z " fill="#8BB991" transform="translate(243,269)"/>
<path d="M0 0 C1.23 0.15 1.23 0.15 2.48 0.31 C3.42 0.43 3.42 0.43 4.38 0.56 C4.38 1.55 4.38 2.54 4.38 3.56 C0.75 3.23 -2.88 2.9 -6.62 2.56 C-6.62 1.9 -6.62 1.24 -6.62 0.56 C-4.1 -0.7 -2.77 -0.36 0 0 Z " fill="#A5C9AA" transform="translate(459.625,263.4375)"/>
<path d="M0 0 C0.99 0 1.98 0 3 0 C1.44 3.82 -1.04 6.19 -4 9 C-4.66 8.67 -5.32 8.34 -6 8 C-2.25 2.25 -2.25 2.25 0 0 Z " fill="#569A5F" transform="translate(589,234)"/>
<path d="M0 0 C0.66 0.33 1.32 0.66 2 1 C0.61 1.85 -0.79 2.68 -2.19 3.5 C-2.96 3.96 -3.74 4.43 -4.54 4.91 C-7.24 6.11 -9.08 6.21 -12 6 C-12.33 5.34 -12.66 4.68 -13 4 C-12.4 3.88 -11.79 3.76 -11.17 3.63 C-10.37 3.47 -9.57 3.3 -8.75 3.12 C-7.96 2.96 -7.17 2.8 -6.36 2.63 C-3.97 2.08 -3.97 2.08 -1.83 0.87 C-1.22 0.58 -0.62 0.29 0 0 Z " fill="#4B9354" transform="translate(755,324)"/>
<path d="M0 0 C3.5 1.4 4.71 2.71 6.25 6.12 C6.59 6.85 6.92 7.57 7.27 8.32 C7.63 9.15 7.63 9.15 8 10 C5.15 8.62 2.97 7.53 1 5 C0.31 2.31 0.31 2.31 0 0 Z " fill="#5F9F67" transform="translate(957,319)"/>
<path d="M0 0 C0 3.3 0 6.6 0 10 C-0.66 10 -1.32 10 -2 10 C-3.48 7.04 -3.06 4.26 -3 1 C-1 0 -1 0 0 0 Z " fill="#9BC3A1" transform="translate(770,284)"/>
</svg>
