<?xml version="1.0" encoding="UTF-8"?>
<svg id="a"
     xmlns="http://www.w3.org/2000/svg"
     viewBox="0 0 1221.22 232.67">
    <path d="m53.4,192.24L2.21,62.87h33.64l36.96,96.47h.37l36.96-96.47h33.64l-51.38,129.37h-39Z"
          style="fill:#086250; stroke:#086250; stroke-miterlimit:10; stroke-width:3px;" />
    <path d="m162.99,150.1c2.96,13.49,13.86,19.59,28.83,19.59,8.87,0,19.96-2.59,28.28-7.95l7.02,22.36c-11.64,7.39-23.47,10.35-37.89,10.35-32.53,0-56.92-21.81-56.92-53.41s22.36-53.23,55.63-53.23c29.39,0,50.64,19.22,50.64,44.91,0,6.47-1.29,12.01-3.33,17.37h-72.26Zm0-17.93l45.65-.19c-.55-13.12-9.06-19.59-21.62-19.59-13.31,0-21.44,7.21-24.03,19.78Z"
          style="fill:#086250; stroke:#086250; stroke-miterlimit:10; stroke-width:3px;" />
    <path d="m355.2,130.33v61.91h-30.49v-56.18c0-13.86-6.47-21.07-19.41-21.07-11.27,0-20.15,7.58-24.03,18.11v59.14h-30.49v-102.2h30.49v13.68c7.02-9.43,18.11-15.89,33.64-15.89,24.58,0,40.29,15.71,40.29,42.51Z"
          style="fill:#086250; stroke:#086250; stroke-miterlimit:10; stroke-width:3px;" />
    <path d="m367.02,140.68c0-31.42,21.44-52.86,49.16-52.86,12.94,0,24.58,4.07,33.27,13.49v-45.46h30.31v136.39h-30.31v-11.46c-8.69,9.43-20.51,13.68-33.45,13.68-27.17,0-48.98-22.18-48.98-53.78Zm82.43.55c0-16.45-10.35-27.17-26.43-27.17-14.97,0-25.5,10.9-25.5,26.8s10.35,27.35,25.5,27.35c16.63,0,26.43-12.2,26.43-26.98Z"
          style="fill:#086250; stroke:#086250; stroke-miterlimit:10; stroke-width:3px;" />
    <path d="m745.59,112.4c-13.31,0-21.44,7.21-24.03,19.78l45.65-.18c-.55-13.12-9.06-19.59-21.62-19.59Z"
          style="fill:#086250; stroke-width:0px;" />
    <path d="m1194.71,0h-540.28c-32.73,0-62.96,17.5-79.27,45.88l-84.52,147.13c-10.14,17.65,2.6,39.66,22.96,39.66h541.53c32.94,0,63.33-17.72,79.56-46.39l83.06-146.76c9.99-17.65-2.76-39.51-23.04-39.51Zm-510.11,177.45c-14.97,9.79-34.93,17-55.26,17-40.84,0-70.42-28.09-70.42-66.72,0-42.32,33.82-67.09,72.08-67.09,16.26,0,33.08,4.25,48.61,13.68l-12.38,24.77c-11.83-7.39-24.4-10.9-35.86-10.9-22.18,0-39.92,13.86-39.92,39.55,0,24.21,15.52,39.37,39.18,39.37,12.57,0,17.93-2.4,23.84-5.54v-16.26h-12.75v-23.47h43.06l-.18,55.63Zm109.22-27.35h-72.26c2.96,13.49,13.86,19.59,28.83,19.59,8.87,0,19.96-2.59,28.28-7.95l7.02,22.36c-11.64,7.39-23.47,10.35-37.89,10.35-32.53,0-56.92-21.81-56.92-53.41s22.36-53.23,55.63-53.23c29.39,0,50.64,19.22,50.64,44.91,0,6.47-1.29,12.01-3.33,17.37Zm116.62,42.14h-30.5v-56.18c0-13.86-6.47-21.07-19.41-21.07-11.27,0-20.15,7.58-24.03,18.11v59.14h-30.49v-102.2h30.49v13.68c7.02-9.43,18.11-15.89,33.64-15.89,24.58,0,40.29,15.71,40.29,42.51v61.91Zm42.69,0h-30.49v-102.2h30.49v102.2Zm.55-111.81h-31.6v-23.84h31.6v23.84Zm87.23,111.81l-24.4-31.97-24.58,31.97h-34.01l40.48-52.3-38.63-49.9h35.67l21.25,29.57,21.25-29.57h35.12l-38.44,49.53,40.85,52.67h-34.56Z"
          style="fill:#086250; stroke-width:0px;" />
</svg>